<?xml version="1.0" encoding="UTF-8" standalone="no"?>
<svg
   xmlns:dc="http://purl.org/dc/elements/1.1/"
   xmlns:cc="http://creativecommons.org/ns#"
   xmlns:rdf="http://www.w3.org/1999/02/22-rdf-syntax-ns#"
   xmlns:svg="http://www.w3.org/2000/svg"
   xmlns="http://www.w3.org/2000/svg"
   xmlns:sodipodi="http://sodipodi.sourceforge.net/DTD/sodipodi-0.dtd"
   xmlns:inkscape="http://www.inkscape.org/namespaces/inkscape"
   version="1.0"
   width="300.000000pt"
   height="460.000000pt"
   viewBox="0 0 300.000000 460.000000"
   preserveAspectRatio="xMidYMid meet"
   id="svg2"
   inkscape:version="0.48.4 r9939"
   sodipodi:docname="insignia.svg">
  <defs
     id="defs12" />
  <sodipodi:namedview
     pagecolor="#ffffff"
     bordercolor="#666666"
     borderopacity="1"
     objecttolerance="10"
     gridtolerance="10"
     guidetolerance="10"
     inkscape:pageopacity="0"
     inkscape:pageshadow="2"
     inkscape:window-width="958"
     inkscape:window-height="1078"
     id="namedview10"
     showgrid="false"
     inkscape:zoom="0.41043478"
     inkscape:cx="187.5"
     inkscape:cy="287.5"
     inkscape:window-x="0"
     inkscape:window-y="0"
     inkscape:window-maximized="0"
     inkscape:current-layer="g6" />
  <metadata
     id="metadata4">
Created by potrace 1.10, written by Peter Selinger 2001-2011
<rdf:RDF>
  <cc:Work
     rdf:about="">
    <dc:format>image/svg+xml</dc:format>
    <dc:type
       rdf:resource="http://purl.org/dc/dcmitype/StillImage" />
  </cc:Work>
</rdf:RDF>
</metadata>
  <g
     transform="translate(0.000000,460.000000) scale(0.100000,-0.100000)"
     fill="#000000"
     stroke="none"
     id="g6">
    <path
       d="M1447 4343 c-672 -1039 -1071 -2220 -1227 -3629 -41 -375 -54 -566 -37 -543 638 818 1349 1484 1666 1559 318 75 631 -288 937 -1089 43 -113 50 -128 58 -120 5 5 -122 716 -180 1004 -209 1054 -455 1764 -849 2451 -105 182 -285 464 -298 464 -4 0 -36 -44 -70 -97z m198 -1498 l6 -41 149 -49 c82 -27 146 -52 142 -56 -4 -4 -64 -38 -134 -75 -83 -43 -128 -73 -128 -83 0 -9 7 -72 15 -141 8 -69 15 -132 15 -140 0 -8 -36 48 -81 125 -45 77 -87 146 -94 153 -10 11 -30 -17 -109 -150 -59 -101 -94 -152 -91 -133 12 77 35 297 31 303 -2 4 -63 36 -135 72 -72 35 -131 67 -131 70 0 3 66 28 147 55 l148 50 46 375 c26 206 55 436 65 510 l18 135 58 -470 c31 -258 60 -488 63 -510z"
       id="path8"
       style="fill:#ffffff;fill-opacity:1" />
  </g>
</svg>
