<?xml version="1.0" encoding="UTF-8" standalone="no"?>
<svg
   xmlns:dc="http://purl.org/dc/elements/1.1/"
   xmlns:cc="http://creativecommons.org/ns#"
   xmlns:rdf="http://www.w3.org/1999/02/22-rdf-syntax-ns#"
   xmlns:svg="http://www.w3.org/2000/svg"
   xmlns="http://www.w3.org/2000/svg"
   xmlns:sodipodi="http://sodipodi.sourceforge.net/DTD/sodipodi-0.dtd"
   xmlns:inkscape="http://www.inkscape.org/namespaces/inkscape"
   version="1.0"
   width="825.000000pt"
   height="626.000000pt"
   viewBox="0 0 825.000000 626.000000"
   preserveAspectRatio="xMidYMid meet"
   id="svg2"
   inkscape:version="0.48.4 r9939"
   sodipodi:docname="superman.svg">
  <sodipodi:namedview
     pagecolor="#ffffff"
     bordercolor="#666666"
     borderopacity="1"
     objecttolerance="10"
     gridtolerance="10"
     guidetolerance="10"
     inkscape:pageopacity="0"
     inkscape:pageshadow="2"
     inkscape:window-width="958"
     inkscape:window-height="1078"
     id="namedview20"
     showgrid="false"
     inkscape:zoom="0.30159744"
     inkscape:cx="780.87924"
     inkscape:cy="391.25"
     inkscape:window-x="0"
     inkscape:window-y="0"
     inkscape:window-maximized="0"
     inkscape:current-layer="svg2" />
  <defs
     id="defs22" />
  <metadata
     id="metadata4">
Created by potrace 1.11, written by Peter Selinger 2001-2013
<rdf:RDF>
  <cc:Work
     rdf:about="">
    <dc:format>image/svg+xml</dc:format>
    <dc:type
       rdf:resource="http://purl.org/dc/dcmitype/StillImage" />
    <dc:title></dc:title>
  </cc:Work>
</rdf:RDF>
</metadata>
  <g
     id="g6"
     stroke="none"
     fill="#ffffff"
     transform="translate(0.000000,626.000000) scale(0.100000,-0.100000)">
    <path
       id="path8"
       d="M840 5438 c-389 -395 -699 -717 -696 -724 6 -15 3979 -4593 3986 -4593 7 0 3980 4578 3986 4593 3 7 -306 328 -696 724 l-701 712 -2589 0 -2589 0 -701 -712z m6446 -79 c346 -352 628 -645 626 -650 -3 -11 -3775 -4358 -3782 -4358 -7 0 -3779 4347 -3782 4358 -2 5 280 298 626 650 l629 641 2527 0 2527 0 629 -641z" />
    <path
       id="path10"
       d="M1404 5353 c-192 -197 -409 -419 -482 -494 l-132 -136 317 -359 c174 -197 319 -360 322 -361 3 -2 6 72 7 165 1 144 5 183 28 287 62 268 176 487 373 716 179 207 443 405 673 506 l75 33 -416 0 -415 0 -350 -357z" />
    <path
       id="path12"
       d="M5436 5608 c159 -162 257 -285 308 -385 9 -18 21 -33 27 -33 6 0 41 30 78 68 104 103 156 226 163 387 l3 60 -340 3 -340 2 101 -102z" />
    <path
       id="path14"
       d="M3545 5650 c-395 -60 -695 -182 -871 -355 -125 -124 -169 -239 -147 -385 40 -256 266 -426 670 -504 238 -46 310 -49 1003 -51 673 -1 744 -4 1030 -45 616 -90 1012 -310 1205 -671 l31 -58 502 571 503 571 -119 121 c-65 67 -265 272 -445 456 l-327 334 0 -482 0 -482 -575 0 -575 0 -5 28 c-42 206 -106 360 -204 489 -199 264 -530 418 -1001 468 -191 21 -523 18 -675 -5z" />
    <path
       id="path16"
       d="M1841 3534 c15 -18 759 -865 784 -892 9 -10 18 0 44 52 49 101 143 166 288 201 100 24 333 17 448 -15 249 -67 471 -209 595 -379 l45 -62 180 6 c827 27 1318 150 1439 358 68 118 27 232 -111 305 -186 98 -518 150 -1188 187 -255 13 -415 20 -1060 45 -772 30 -1168 86 -1460 205 -19 8 -19 7 -4 -11z" />
    <path
       id="path18"
       d="M5125 2123 c-545 -127 -1250 -140 -1900 -33 -65 10 -120 18 -122 17 -2 -3 1023 -1167 1031 -1170 6 -2 1059 1194 1054 1197 -2 2 -30 -3 -63 -11z" />
  </g>
</svg>
