<?xml version="1.0" encoding="UTF-8" standalone="no"?>
<svg
   xmlns:dc="http://purl.org/dc/elements/1.1/"
   xmlns:cc="http://creativecommons.org/ns#"
   xmlns:rdf="http://www.w3.org/1999/02/22-rdf-syntax-ns#"
   xmlns:svg="http://www.w3.org/2000/svg"
   xmlns="http://www.w3.org/2000/svg"
   xmlns:sodipodi="http://sodipodi.sourceforge.net/DTD/sodipodi-0.dtd"
   xmlns:inkscape="http://www.inkscape.org/namespaces/inkscape"
   version="1.0"
   width="32"
   height="37"
   viewBox="0 0 25.6 29.600001"
   preserveAspectRatio="xMidYMid meet"
   id="svg12494"
   inkscape:version="0.48.5 r10040"
   sodipodi:docname="superman-colour.svg">
  <defs
     id="defs12514" />
  <sodipodi:namedview
     pagecolor="#ffffff"
     bordercolor="#666666"
     borderopacity="1"
     objecttolerance="10"
     gridtolerance="10"
     guidetolerance="10"
     inkscape:pageopacity="0"
     inkscape:pageshadow="2"
     inkscape:window-width="1918"
     inkscape:window-height="1078"
     id="namedview12512"
     showgrid="false"
     fit-margin-top="0"
     fit-margin-left="0"
     fit-margin-right="0"
     fit-margin-bottom="0"
     inkscape:zoom="19.302236"
     inkscape:cx="23.120957"
     inkscape:cy="19.519341"
     inkscape:window-x="0"
     inkscape:window-y="0"
     inkscape:window-maximized="0"
     inkscape:current-layer="svg12494"
     inkscape:snap-bbox="true"
     inkscape:bbox-paths="true" />
  <metadata
     id="metadata12496">
Created by potrace 1.11, written by Peter Selinger 2001-2013
<rdf:RDF>
  <cc:Work
     rdf:about="">
    <dc:format>image/svg+xml</dc:format>
    <dc:type
       rdf:resource="http://purl.org/dc/dcmitype/StillImage" />
    <dc:title></dc:title>
  </cc:Work>
</rdf:RDF>
</metadata>
  <g
     id="g3825"
     transform="matrix(1.0570551,0,0,1.0570551,-0.74376339,-1.4172605)">
    <path
       d="M 4.0462065,8.8131833 C 3.4296523,9.4457937 2.7328176,10.158685 2.4983985,10.399526 l -0.423881,0.436726 1.0179567,1.152828 c 0.5587523,0.63261 1.0243792,1.156039 1.0340128,1.15925 0.00963,0.0064 0.019267,-0.231207 0.022479,-0.529851 0.00321,-0.462416 0.016056,-0.587653 0.089914,-0.92162 C 4.4379754,10.836252 4.8040544,10.132995 5.4366648,9.3976254 6.0114732,8.7329028 6.8592352,8.0970813 7.5978158,7.7727481 l 0.2408415,-0.1059703 -1.3358675,0 -1.3326563,0 -1.123927,1.1464055 z"
       id="path12502"
       inkscape:connector-curvature="0"
       style="fill:#ffff00;fill-opacity:1;stroke:none" />
    <path
       d="m 16.993846,7.9943222 c 0.510584,0.5202177 0.825283,0.9151977 0.989055,1.2363197 0.0289,0.057802 0.06744,0.1059703 0.0867,0.1059703 0.01927,0 0.13166,-0.096337 0.250475,-0.218363 0.333967,-0.3307556 0.500951,-0.7257357 0.523429,-1.2427421 l 0.0096,-0.1926732 -1.091815,-0.00963 -1.091815,-0.00642 0.324334,0.3275444 z"
       id="path12504"
       inkscape:connector-curvature="0"
       style="fill:#ffff00;fill-opacity:1;stroke:none" />
    <path
       d="M 10.921429,7.859451 C 9.6529966,8.0521242 8.6896307,8.443893 8.1244559,8.9994341 7.7230534,9.3976254 7.5817598,9.7669157 7.6524066,10.235754 c 0.1284488,0.822072 0.8541845,1.36798 2.1515174,1.618455 0.76427,0.147716 0.995478,0.157349 3.220854,0.163772 2.161151,0.0032 2.389147,0.01284 3.307556,0.144505 1.978112,0.28901 3.249755,0.995478 3.86952,2.154728 l 0.09955,0.186251 1.612033,-1.833606 1.615243,-1.833607 -0.382135,-0.388558 C 22.937814,10.232543 22.29557,9.5742425 21.71755,8.983378 l -1.050069,-1.0725475 0,1.5478081 0,1.5478084 -1.846451,0 -1.846452,0 -0.01606,-0.08991 C 16.823651,10.255021 16.618133,9.7604932 16.303433,9.3462459 15.6644,8.4984838 14.601487,8.0039559 13.089002,7.8433949 12.475659,7.7759593 11.409534,7.7855929 10.921429,7.859451 z"
       id="path12506"
       inkscape:connector-curvature="0"
       style="fill:#ffff00;fill-opacity:1;stroke:none" />
    <path
       d="m 5.4495097,14.654393 c 0.048168,0.0578 2.4373159,2.777705 2.5175964,2.864408 0.028901,0.03211 0.057802,0 0.1412937,-0.166984 0.1573498,-0.324333 0.4592045,-0.533062 0.9248314,-0.645455 0.321122,-0.07707 1.0693358,-0.05459 1.4386268,0.04817 0.799594,0.215152 1.512484,0.671145 1.910676,1.217053 l 0.144505,0.199095 0.578019,-0.01927 c 2.655679,-0.0867 4.232388,-0.481683 4.620946,-1.149617 0.218363,-0.378924 0.0867,-0.745003 -0.356446,-0.979422 -0.597287,-0.314699 -1.663412,-0.481683 -3.814929,-0.600498 -0.818861,-0.04175 -1.332656,-0.06422 -3.403893,-0.144505 -2.4790621,-0.09634 -3.7507052,-0.276165 -4.6883815,-0.6583 -0.061013,-0.02569 -0.061013,-0.02248 -0.012845,0.03532 z"
       id="path12508"
       inkscape:connector-curvature="0"
       style="fill:#ffff00;fill-opacity:1;stroke:none" />
    <path
       d="m 15.995156,19.185424 c -1.750115,0.407825 -4.014025,0.449571 -6.1013179,0.10597 -0.2087293,-0.03211 -0.3853464,-0.0578 -0.3917688,-0.05459 -0.00642,0.0096 3.2850777,3.747494 3.3107677,3.757128 0.01927,0.0064 3.400682,-3.834197 3.384626,-3.84383 -0.0064,-0.0064 -0.09634,0.0096 -0.202307,0.03532 z"
       id="path12510"
       inkscape:connector-curvature="0"
       style="fill:#ffff00;fill-opacity:1;stroke:none" />
    <path
       transform="scale(0.80000003,0.80000003)"
       inkscape:connector-curvature="0"
       id="path3823"
       d="M 14.843508,29.748586 C 10.952766,25.295642 0.88446037,13.676003 0.85877841,13.609077 0.8441034,13.570834 1.2728644,13.121952 3.3976783,10.95103 4.2959766,10.033239 5.2157164,9.0919624 5.4415444,8.8593037 l 0.4105967,-0.4230157 10.1491459,0 10.149146,0 0.332778,0.3454688 c 0.183028,0.1900079 1.085211,1.1137998 2.004851,2.0528712 1.909071,1.949407 2.608814,2.673502 2.642145,2.734102 0.02616,0.04755 -0.43107,0.582265 -5.246505,6.135683 -6.689387,7.71456 -9.85251,11.345835 -9.883105,11.345835 -0.01087,0 -0.531561,-0.585748 -1.157089,-1.301662 l 0,0 z m 1.574751,-1.431182 c 1.124862,-1.244133 3.831133,-4.336879 3.831133,-4.378246 0,-0.02252 -0.02947,-0.01763 -0.608738,0.101073 -2.059793,0.422098 -4.440219,0.458051 -6.968104,0.105243 -0.356177,-0.04971 -0.67965,-0.09688 -0.718829,-0.104818 -0.03918,-0.0079 -0.07123,-0.0034 -0.07123,0.01 0,0.05327 4.092941,4.693672 4.133394,4.68627 0.01521,-0.0028 0.196279,-0.191567 0.402379,-0.41952 z m 0.308225,-5.634856 c 2.486743,-0.102754 4.199086,-0.439744 4.999421,-0.983888 0.200222,-0.136131 0.405016,-0.361945 0.487097,-0.537094 0.05817,-0.12412 0.06962,-0.183636 0.06856,-0.356245 -0.0018,-0.295511 -0.103182,-0.472363 -0.385368,-0.672292 -0.476732,-0.337766 -1.380787,-0.560358 -2.896607,-0.713189 -1.042682,-0.105127 -2.119711,-0.166969 -4.733963,-0.271818 -2.559586,-0.102658 -3.042227,-0.127918 -4.002127,-0.20946 -1.3934595,-0.118371 -2.4463507,-0.314091 -3.210436,-0.59678 -0.1367503,-0.05059 -0.2610843,-0.08784 -0.2762983,-0.08277 -0.015214,0.0051 0.6965856,0.833027 1.5817763,1.839901 0.901644,1.02559 1.623156,1.825174 1.6406311,1.818159 0.017157,-0.0069 0.089153,-0.11237 0.1599919,-0.234404 0.07733,-0.133222 0.186415,-0.275208 0.272992,-0.355338 0.24936,-0.230791 0.632732,-0.399869 1.042543,-0.459791 0.272732,-0.03988 1.091151,-0.01514 1.38936,0.042 0.697262,0.133595 1.545936,0.549495 2.107653,1.032873 0.201693,0.173564 0.407981,0.404774 0.58444,0.655047 l 0.09469,0.134299 0.207547,-0.01096 c 0.114151,-0.006 0.504792,-0.02324 0.868092,-0.03825 z m 9.77264,-5.808118 c 0.604401,-0.687421 1.508986,-1.715266 2.010187,-2.284102 0.501198,-0.568835 0.908073,-1.042435 0.904162,-1.052445 -0.0039,-0.01001 -0.694855,-0.720704 -1.535431,-1.579321 -0.840576,-0.858617 -1.637173,-1.675994 -1.770215,-1.816394 -0.133042,-0.140399 -0.252523,-0.2552708 -0.265513,-0.2552708 -0.01401,0 -0.02362,0.7849958 -0.02362,1.9298278 l 0,1.929829 -2.291987,0 -2.291987,0 -0.01594,-0.07124 c -0.205208,-0.917079 -0.436713,-1.469123 -0.843032,-2.010278 -0.37256,-0.496193 -0.847673,-0.87811 -1.486303,-1.194756 -0.858201,-0.425513 -1.839618,-0.6474656 -3.168393,-0.7165482 -1.384047,-0.071956 -2.592161,0.072458 -3.709509,0.4434212 -1.600935,0.531517 -2.5613591,1.472017 -2.4739066,2.422584 0.083801,0.910881 0.6423176,1.53699 1.7317736,1.941357 0.547236,0.203115 1.482579,0.383227 2.226881,0.428816 0.245048,0.01501 1.60538,0.03853 3.022962,0.05227 1.899487,0.01841 2.679623,0.03493 2.965978,0.06278 2.199529,0.213948 3.718235,0.719953 4.753335,1.583723 0.422832,0.352844 0.735988,0.736194 1.008736,1.234841 0.06039,0.110414 0.119505,0.200754 0.131357,0.200754 0.01185,0 0.516061,-0.562435 1.120464,-1.249855 z M 5.1753234,16.434066 c 0.00105,-0.0036 0.011841,-0.30955 0.023985,-0.679973 0.028952,-0.883109 0.1133747,-1.312767 0.4045565,-2.058933 0.6256118,-1.603157 2.162599,-3.164413 3.9036996,-3.9653392 L 9.8136801,9.5890042 8.1346665,9.581374 6.4556533,9.5737437 5.8857711,10.152795 c -1.0984644,1.116138 -3.2898414,3.36525 -3.296665,3.38352 -0.00379,0.01015 0.3284254,0.397949 0.7382564,0.861782 1.7507157,1.981399 1.8362819,2.075671 1.8479609,2.035969 l 0,0 z M 22.809483,11.504589 c 0.473191,-0.438101 0.703284,-0.931701 0.749505,-1.6078505 l 0.01969,-0.2880517 -0.207559,-0.016162 c -0.114158,-0.00889 -0.736402,-0.016232 -1.382767,-0.016317 l -1.175207,-1.553e-4 0.372191,0.3831612 c 0.626993,0.6454713 0.963016,1.0573493 1.271524,1.5585633 0.05297,0.08606 0.112752,0.156478 0.132841,0.156478 0.02009,0 0.11899,-0.07635 0.21978,-0.169666 l 0,0 z"
       style="fill:#ff0000;fill-opacity:1;stroke-width:3;stroke-miterlimit:3.9000001;stroke-dasharray:none" />
  </g>
</svg>
