<?xml version="1.0" encoding="UTF-8" standalone="no"?>
<!-- Created with Inkscape (http://www.inkscape.org/) -->

<svg
   xmlns:dc="http://purl.org/dc/elements/1.1/"
   xmlns:cc="http://creativecommons.org/ns#"
   xmlns:rdf="http://www.w3.org/1999/02/22-rdf-syntax-ns#"
   xmlns:svg="http://www.w3.org/2000/svg"
   xmlns="http://www.w3.org/2000/svg"
   xmlns:sodipodi="http://sodipodi.sourceforge.net/DTD/sodipodi-0.dtd"
   xmlns:inkscape="http://www.inkscape.org/namespaces/inkscape"
   width="32"
   height="37"
   id="svg3007"
   version="1.1"
   inkscape:version="0.48.5 r10040"
   sodipodi:docname="tux.svg">
  <defs
     id="defs3009" />
  <sodipodi:namedview
     id="base"
     pagecolor="#000000"
     bordercolor="#666666"
     borderopacity="1.0"
     inkscape:pageopacity="0"
     inkscape:pageshadow="2"
     inkscape:zoom="11.313709"
     inkscape:cx="39.209041"
     inkscape:cy="17.375118"
     inkscape:document-units="px"
     inkscape:current-layer="svg3007"
     showgrid="false"
     inkscape:window-width="1918"
     inkscape:window-height="1078"
     inkscape:window-x="0"
     inkscape:window-y="0"
     inkscape:window-maximized="0"
     units="cm"
     fit-margin-top="0"
     fit-margin-left="0"
     fit-margin-right="0"
     fit-margin-bottom="0" />
  <metadata
     id="metadata3012">
    <rdf:RDF>
      <cc:Work
         rdf:about="">
        <dc:format>image/svg+xml</dc:format>
        <dc:type
           rdf:resource="http://purl.org/dc/dcmitype/StillImage" />
        <dc:title />
      </cc:Work>
    </rdf:RDF>
  </metadata>
  <g
     transform="translate(-44.010125,-862.64465)"
     id="g13595">
    <path
       id="path154"
       d="m 60.610918,863.49453 c -0.224762,-4.1e-4 -0.459201,0.009 -0.703678,0.0286 -6.178905,0.49763 -4.540217,7.02532 -4.631924,9.21123 -0.112838,1.59854 -0.436949,2.85831 -1.536364,4.42108 -1.291648,1.536 -3.110142,4.02204 -3.971611,6.60991 -0.406574,1.22137 -0.600047,2.46627 -0.42137,3.64449 -0.05597,0.0501 -0.109256,0.10263 -0.159922,0.15672 -0.379228,0.40486 -0.659434,0.8954 -0.971656,1.22568 -0.291697,0.29098 -0.707291,0.40166 -1.163995,0.56551 -0.456879,0.16392 -0.958497,0.40559 -1.262982,0.98987 0,0 0,2.1e-4 -2.04e-4,3e-4 -4.96e-4,9.1e-4 -10e-4,0.002 -0.0015,0.003 l 0,0 c -0.275636,0.51481 -0.193693,1.10767 -0.109513,1.65695 0.08419,0.54928 0.169407,1.06831 0.05628,1.42045 -0.361588,0.98832 -0.407753,1.67196 -0.153206,2.16784 0.255089,0.49692 0.779574,0.71626 1.372355,0.84006 1.185566,0.24762 2.791135,0.18609 4.056507,0.85675 l 0.108761,-0.20521 -0.107635,0.20582 c 1.354644,0.70824 2.727985,0.95981 3.823669,0.70954 0.794391,-0.18143 1.439246,-0.65445 1.770423,-1.38231 0.856999,-0.005 1.797408,-0.36718 3.303826,-0.45012 1.021953,-0.0823 2.298554,0.36291 3.766961,0.28138 0.03839,0.1593 0.09393,0.31253 0.169976,0.45814 7.81e-4,0.002 0.0015,0.003 0.0024,0.005 0.569231,1.13827 1.626904,1.65891 2.754059,1.56996 1.128641,-0.0891 2.328614,-0.75457 3.29861,-1.90894 l -0.177825,-0.14944 0.179183,0.1478 c 0.924551,-1.12104 2.459152,-1.58589 3.476717,-2.19962 0.508784,-0.30688 0.921623,-0.69113 0.953522,-1.24922 0.03188,-0.55783 -0.295608,-1.18295 -1.048659,-2.01886 0,0 -2.04e-4,-2.1e-4 -2.04e-4,-2.1e-4 -2.86e-4,-3.7e-4 -5.88e-4,-6.9e-4 -8.81e-4,-9.1e-4 -0.247428,-0.27961 -0.365465,-0.79783 -0.492314,-1.34971 -0.126762,-0.55152 -0.268258,-1.14647 -0.721058,-1.53203 l 0,0 c -9.04e-4,-8e-4 -0.0018,-0.002 -0.0027,-0.003 0,0 0,0 0,0 -0.180208,-0.15703 -0.367475,-0.26361 -0.556064,-0.33522 0.629535,-1.86704 0.382534,-3.72616 -0.252942,-5.40616 -0.77991,-2.06183 -2.141516,-3.85839 -3.181396,-5.0874 -1.163977,-1.46818 -2.302448,-2.86209 -2.280021,-4.92086 0.03467,-3.14213 0.345623,-8.96911 -5.183575,-8.97666 z m 0.748544,4.84075 c 0.313752,0 0.581716,0.0919 0.856974,0.29175 0.27963,0.20296 0.481084,0.45702 0.643449,0.81183 0.159358,0.34579 0.236031,0.68403 0.243549,1.08544 0,0.0106 0,0.0195 0.003,0.0301 0.003,0.41193 -0.06765,0.76221 -0.224005,1.12002 -0.08922,0.20417 -0.191669,0.37552 -0.314301,0.52387 -0.04164,-0.0199 -0.08487,-0.0392 -0.129714,-0.0576 l 0,0 c -0.310838,-0.13314 -0.54929,-0.21786 -0.748026,-0.28682 0.07204,-0.0866 0.132027,-0.1893 0.184775,-0.31769 0.07968,-0.19393 0.118768,-0.38336 0.126285,-0.60887 0,-0.009 0.003,-0.0166 0.003,-0.0271 0.0045,-0.21648 -0.02406,-0.4014 -0.0872,-0.59082 -0.06615,-0.19844 -0.150338,-0.34127 -0.272111,-0.46003 -0.121774,-0.11878 -0.243549,-0.17289 -0.389378,-0.17742 -0.0069,-4e-4 -0.01365,-4e-4 -0.02039,-4e-4 -0.137171,4e-4 -0.25628,0.0475 -0.379511,0.15061 -0.12929,0.10825 -0.225506,0.24656 -0.305188,0.43899 -0.07968,0.19244 -0.118767,0.38337 -0.126281,0.61037 -0.0015,0.009 -0.0015,0.0166 -0.0015,0.0255 -0.0026,0.12478 0.0053,0.23909 0.02457,0.3501 -0.280673,-0.13986 -0.545173,-0.23521 -0.793409,-0.29429 -0.01415,-0.10734 -0.02233,-0.21812 -0.02495,-0.33393 l 0,-0.0315 c -0.0045,-0.41042 0.06314,-0.76221 0.220998,-1.12002 0.157856,-0.35781 0.353296,-0.61488 0.628415,-0.82386 0.275118,-0.20896 0.545725,-0.30518 0.865948,-0.30818 0.005,0 0.01001,0 0.01499,0 z m -4.294321,0.34 c 0.208135,4.9e-4 0.394379,0.07 0.587024,0.22386 0.20897,0.16688 0.366825,0.38035 0.499123,0.68103 0.132298,0.30069 0.202957,0.60135 0.2225,0.95616 l 0,0.003 c 0.0095,0.149 0.0083,0.28928 -0.0034,0.42511 -0.04117,0.0117 -0.0815,0.0244 -0.121023,0.0379 -0.224422,0.0773 -0.422206,0.18252 -0.594589,0.29636 0.01686,-0.11908 0.01936,-0.23989 0.0064,-0.37458 -0.0015,-0.008 -0.0015,-0.0135 -0.0015,-0.0211 -0.01805,-0.17891 -0.05562,-0.32923 -0.118767,-0.48108 -0.06765,-0.15786 -0.14282,-0.26911 -0.242046,-0.3548 -0.08992,-0.0776 -0.17488,-0.11332 -0.268352,-0.11262 -0.0097,0 -0.01945,5.4e-4 -0.02932,9.1e-4 -0.105237,0.009 -0.192433,0.0602 -0.275121,0.16086 -0.08268,0.10072 -0.136805,0.2255 -0.175893,0.39087 -0.03909,0.16537 -0.04961,0.32774 -0.03308,0.51416 0,0.008 0.0015,0.0135 0.0015,0.021 0.01803,0.18041 0.05413,0.33075 0.118767,0.48259 0.06615,0.15635 0.142821,0.2676 0.242046,0.35329 0.01662,0.0144 0.03305,0.0271 0.04942,0.0388 -0.103208,0.0795 -0.152489,0.11604 -0.237062,0.17818 -0.05424,0.0397 -0.118848,0.0872 -0.193937,0.14255 -0.163751,-0.15341 -0.291497,-0.34619 -0.40319,-0.60003 -0.132297,-0.30069 -0.202957,-0.60137 -0.224005,-0.95617 l 0,-0.003 c -0.01954,-0.35479 0.01504,-0.65998 0.112755,-0.97569 0.09772,-0.31572 0.228516,-0.54423 0.41794,-0.73215 0.189427,-0.18792 0.380358,-0.28264 0.610375,-0.29466 0.01797,-9.1e-4 0.03579,-0.002 0.05342,-0.002 z m 1.953036,2.46147 c 0.48376,-0.002 1.0659,0.15671 1.770657,0.60985 0.432894,0.28151 0.769739,0.30503 1.545384,0.63724 l 9.04e-4,4.2e-4 0.001,3.6e-4 c 0.373195,0.15313 0.592242,0.3527 0.699262,0.56287 0.107018,0.21018 0.109635,0.43808 0.02005,0.67784 -0.179145,0.47953 -0.750977,0.98417 -1.553418,1.23475 l -7.59e-4,3.3e-4 -7.14e-4,3.2e-4 c -0.391266,0.12713 -0.732448,0.40786 -1.134679,0.63786 -0.402218,0.23 -0.85736,0.4155 -1.476226,0.3797 0,0 0,0 0,0 -0.526854,-0.0307 -0.841787,-0.20956 -1.126552,-0.43842 -0.284772,-0.22887 -0.532925,-0.51638 -0.896299,-0.72976 l -9.03e-4,-5.5e-4 -10e-4,-5.6e-4 c -0.58531,-0.33083 -0.904862,-0.71347 -1.005151,-1.04519 -0.100292,-0.33172 -0.0061,-0.61486 0.284232,-0.8325 0.326498,-0.24468 0.5533,-0.41112 0.704381,-0.52199 0.150085,-0.11014 0.212527,-0.15144 0.260322,-0.19732 2.45e-4,-3.7e-4 5.01e-4,-5.2e-4 7.54e-4,-7.5e-4 0,0 2.04e-4,-3.6e-4 2.04e-4,-3.6e-4 0.245322,-0.23222 0.636384,-0.65528 1.225867,-0.8582 0.202888,-0.0698 0.42928,-0.11491 0.682678,-0.11591 z m 3.382799,2.00067 c -0.208757,0.0125 -0.427394,0.11992 -0.68197,0.26205 -0.254576,0.14214 -0.540857,0.32394 -0.851104,0.50298 -0.620493,0.35807 -1.334758,0.70052 -2.0446,0.70052 -0.710944,0 -1.278948,-0.32833 -1.704979,-0.66594 -0.213015,-0.1688 -0.388825,-0.33884 -0.529284,-0.47038 -0.07024,-0.0657 -0.131137,-0.12182 -0.18797,-0.1656 -0.05682,-0.0438 -0.103076,-0.0872 -0.198165,-0.0872 l -0.0045,0.1998 c -0.0068,0.0669 -0.0138,0.0648 -0.01104,0.0666 0.0044,0.003 0.02651,0.0105 0.05224,0.0304 0.04178,0.0322 0.09978,0.0847 0.168614,0.14912 0.137667,0.12893 0.3206,0.30618 0.545824,0.48465 0.450441,0.35695 1.076876,0.72318 1.869315,0.72318 0.793541,0 1.544322,-0.37091 2.1769,-0.73596 0.316286,-0.18253 0.603545,-0.36471 0.847814,-0.50109 0.244257,-0.13638 0.449769,-0.22189 0.568748,-0.22899 l -0.01579,-0.26412 z m 0.705371,0.94961 c 0.527054,2.07764 1.752917,5.07853 2.540812,6.54301 0.418794,0.77699 1.251981,2.42782 1.611958,4.41676 0.228095,-0.008 0.479253,0.0261 0.748214,0.0949 0.941184,-2.43998 -0.798111,-5.06816 -1.593447,-5.80009 -0.3211,-0.31159 -0.336534,-0.45118 -0.177351,-0.44459 0.862906,0.76309 1.995712,2.29792 2.407856,4.03034 0.18793,0.78996 0.227998,1.62041 0.02635,2.43999 0.09865,0.0411 0.198848,0.0856 0.300394,0.13362 1.510774,0.73566 2.06951,1.37538 1.800865,2.24849 -0.08848,-0.003 -0.175519,-0.003 -0.260412,-7.1e-4 -0.0079,2e-4 -0.01579,4.1e-4 -0.02369,6e-4 0.218776,-0.69208 -0.265887,-1.20253 -1.557362,-1.78686 -1.339516,-0.58932 -2.406917,-0.5307 -2.587322,0.6645 -0.01155,0.0626 -0.02084,0.12642 -0.02792,0.19111 -0.100076,0.0348 -0.200697,0.0792 -0.30157,0.13432 -0.628992,0.34417 -0.972303,0.96865 -1.163244,1.73458 -0.190788,0.7653 -0.245484,1.69052 -0.298139,2.73057 0,2e-4 0,3.6e-4 0,5.3e-4 -0.03217,0.52297 -0.247184,1.23031 -0.465251,1.97949 -2.194332,1.56527 -5.239857,2.24341 -7.825625,0.47874 -0.175236,-0.27722 -0.376257,-0.55188 -0.583172,-0.82277 -0.132135,-0.173 -0.26787,-0.34493 -0.402814,-0.51445 0.265443,2e-4 0.49107,-0.0432 0.673422,-0.12595 0.226767,-0.10283 0.386097,-0.26798 0.464922,-0.48 0.157649,-0.42405 -6.9e-4,-1.02225 -0.505372,-1.70536 -0.504651,-0.68307 -1.35935,-1.45396 -2.615277,-2.22421 0,0 -2.04e-4,0 -2.04e-4,-2e-4 -0.922676,-0.57403 -1.438688,-1.27762 -1.680218,-2.04155 -0.24155,-0.76399 -0.207681,-1.59011 -0.02151,-2.40574 0.357326,-1.56557 1.275431,-3.08823 1.861233,-4.04377 0.157716,-0.11605 0.05635,0.2154 -0.593037,1.42131 -0.581995,1.10253 -1.670035,3.64693 -0.180312,5.63309 0.03981,-1.41345 0.377362,-2.85499 0.944031,-4.20338 0.825394,-1.87099 2.551824,-5.11552 2.688943,-7.70145 0.0707,0.0514 0.313637,0.21524 0.421887,0.27681 2.04e-4,3.3e-4 4.77e-4,3.3e-4 6.93e-4,3.7e-4 0.316718,0.18651 0.554584,0.45915 0.862662,0.70673 0.308687,0.24808 0.69432,0.46237 1.276935,0.49631 l 0,0 c 0.680032,0.0394 1.198316,-0.17128 1.622949,-0.41409 0.423994,-0.24245 0.762712,-0.51076 1.083613,-0.61551 5.01e-4,-3.2e-4 10e-4,-3.2e-4 0.0014,-4.5e-4 0.678091,-0.21205 1.217244,-0.58736 1.524053,-1.02512 z m 4.306913,11.8944 c 0.274655,-9e-4 0.607365,0.0902 0.97156,0.25322 0.980205,0.45252 1.286897,0.84039 1.019294,1.41018 -0.225506,0.42997 -1.19068,1.11401 -1.852169,0.9336 -0.675017,-0.17439 -1.004259,-1.14708 -0.894513,-1.88223 0.05879,-0.49922 0.34115,-0.71284 0.755828,-0.71477 z m -1.109028,1.34341 c 0.0554,0.89899 0.500191,1.81586 1.286801,2.0143 0.860799,0.2268 2.101893,-0.51177 2.625896,-1.11419 0.104484,-0.005 0.206637,-0.009 0.305844,-0.0116 0.45965,-0.0112 0.845172,0.0151 1.239071,0.35964 l 0.0013,9e-4 0.0014,9.1e-4 c 0.302703,0.25645 0.446586,0.74109 0.571381,1.28402 0.124787,0.54293 0.224577,1.13424 0.598816,1.55549 l 5.59e-4,6e-4 5.19e-4,6.1e-4 c 0.719483,0.7984 0.950747,1.33806 0.931062,1.68251 -0.01968,0.34445 -0.269085,0.60017 -0.729608,0.87793 -0.92065,0.55529 -2.55191,1.03815 -3.593839,2.30023 -0.904724,1.07667 -2.007935,1.668 -2.979519,1.74468 -0.971583,0.0767 -1.80983,-0.32657 -2.30403,-1.31848 l -10e-4,-0.002 -0.0011,-0.002 c -0.306586,-0.58321 -0.17887,-1.50361 0.07939,-2.47443 0.258272,-0.97084 0.629342,-1.96767 0.679014,-2.77788 l 0,-9e-4 0,-9.1e-4 c 0.05255,-1.03809 0.110652,-1.94467 0.285033,-2.64415 0.17438,-0.6995 0.448963,-1.17324 0.93548,-1.43945 0.02266,-0.0124 0.04515,-0.0241 0.06751,-0.0352 z m -15.799152,0.0678 c 0.07262,2.9e-4 0.149462,0.007 0.231334,0.0188 0.550718,0.0834 1.030964,0.46848 1.493657,1.09607 0.462698,0.62758 0.893228,1.48428 1.335806,2.43458 l 5.62e-4,9.1e-4 5.19e-4,8.9e-4 c 0.355655,0.74231 1.106144,1.55853 1.742139,2.39119 0.635993,0.83265 1.12821,1.66845 1.064112,2.30816 l -2.85e-4,0.003 -2.05e-4,0.003 c -0.08292,1.09104 -0.69837,1.685 -1.643153,1.90079 -0.944501,0.21573 -2.224916,7e-4 -3.503821,-0.66769 -3.68e-4,-2.1e-4 -7.59e-4,-3.7e-4 -0.001,-6e-4 -1.414929,-0.74941 -3.098162,-0.67497 -4.177905,-0.90048 -0.540019,-0.1128 -0.892383,-0.28236 -1.054107,-0.59741 -0.161736,-0.31505 -0.165345,-0.86472 0.178337,-1.8019 l 0.0015,-0.005 0.0013,-0.005 c 0.169964,-0.52427 0.04418,-1.09791 -0.03834,-1.63634 -0.08252,-0.53842 -0.122873,-1.02817 0.06099,-1.36953 l 8.47e-4,-0.002 8.37e-4,-0.002 c 0.235396,-0.45375 0.58067,-0.61595 1.009195,-0.7697 0.428521,-0.15374 0.936657,-0.27448 1.337916,-0.67661 l 0.0021,-0.002 0.0021,-0.002 c 0.370949,-0.39133 0.649588,-0.88186 0.975696,-1.23 0.275153,-0.29376 0.550507,-0.48845 0.965549,-0.49133 0.0048,0 0.0096,0 0.01446,0 z"
       style="font-size:medium;font-style:normal;font-variant:normal;font-weight:normal;font-stretch:normal;text-indent:0;text-align:start;text-decoration:none;line-height:normal;letter-spacing:normal;word-spacing:normal;text-transform:none;direction:ltr;block-progression:tb;writing-mode:lr-tb;text-anchor:start;baseline-shift:baseline;color:#000000;fill:#000000;fill-opacity:1;stroke:none;stroke-width:309;marker:none;visibility:visible;display:inline;overflow:visible;enable-background:accumulate;font-family:Bitstream Vera Sans;-inkscape-font-specification:Bitstream Vera Sans"
       inkscape:connector-curvature="0" />
    <path
       transform="translate(44.004555,862.64396)"
       inkscape:connector-curvature="0"
       id="path9275"
       d="m 23.627572,25.91442 c -0.364685,-0.06566 -0.689212,-0.404745 -0.862535,-0.901215 -0.117023,-0.335204 -0.110268,-1.04826 0.01219,-1.286272 0.101856,-0.197977 0.391151,-0.37565 0.61165,-0.37565 0.488087,0 1.412693,0.410109 1.80542,0.800794 0.237132,0.235899 0.254117,0.266615 0.254117,0.459574 0,0.113728 -0.03216,0.274551 -0.07147,0.357385 -0.111153,0.234237 -0.516028,0.572719 -0.914516,0.764549 -0.388011,0.186786 -0.575842,0.227471 -0.834854,0.180835 z"
       style="fill:#000000;fill-opacity:1;stroke:#000000;stroke-width:0.1;stroke-miterlimit:4;stroke-opacity:1;stroke-dasharray:none" />
    <path
       transform="translate(44.004555,862.64396)"
       inkscape:connector-curvature="0"
       id="path10045"
       d="M 9.4236021,34.927347 C 8.8869249,34.855393 8.2753893,34.675328 7.6908957,34.417158 6.1132438,33.720309 5.9729125,33.684192 3.8421372,33.426605 1.9408782,33.196764 1.633896,32.803391 2.1093488,31.206176 c 0.188978,-0.634845 0.2000736,-0.836142 0.089488,-1.623515 -0.127574,-0.908332 -0.1285919,-1.290555 -0.00419,-1.57244 0.188836,-0.42788 0.4762699,-0.638726 1.2550386,-0.920628 0.8554378,-0.309656 1.0137629,-0.434232 1.7023892,-1.339505 0.6163937,-0.810315 0.8279707,-0.957575 1.3768063,-0.958274 0.2819938,-3.58e-4 0.3745859,0.0204 0.6204721,0.139132 0.6959036,0.336021 1.4011179,1.299505 2.2341436,3.05235 0.3158143,0.664534 0.5443994,1.008862 1.3404684,2.01921 1.268207,1.609573 1.609571,2.223725 1.60897,2.894718 -5.08e-4,0.570295 -0.179483,1.039005 -0.536814,1.405864 -0.490015,0.503079 -1.43055,0.750554 -2.3725217,0.624259 z"
       style="fill:#ffd133;fill-opacity:1;stroke:#ffd133;stroke-width:0.1;stroke-miterlimit:4;stroke-opacity:1;stroke-dasharray:none" />
    <path
       transform="translate(44.004555,862.64396)"
       inkscape:connector-curvature="0"
       id="path10047"
       d="m 21.908456,35.325348 c -0.58398,-0.100546 -1.175807,-0.524368 -1.514744,-1.084744 -0.436823,-0.722215 -0.397862,-1.373875 0.210457,-3.520039 0.355942,-1.255773 0.401294,-1.507387 0.483905,-2.6847 0.124502,-1.774332 0.340777,-2.557014 0.842684,-3.049598 0.104733,-0.102789 0.209555,-0.175065 0.232936,-0.160615 0.02338,0.01445 0.05499,0.104309 0.07024,0.199684 0.03961,0.247685 0.433853,1.012458 0.646419,1.253945 0.102624,0.116587 0.28909,0.258251 0.432839,0.328841 0.351131,0.172427 0.894933,0.173846 1.370934,0.0036 0.44834,-0.160375 0.919439,-0.439609 1.259548,-0.746569 l 0.288015,-0.259944 0.400101,0 c 0.802568,0 1.240669,0.286719 1.487828,0.97372 0.03907,0.108584 0.146745,0.495736 0.239289,0.860338 0.213733,0.842061 0.313851,1.061888 0.694409,1.524699 0.753591,0.916472 0.931887,1.436973 0.633385,1.849043 -0.204542,0.282362 -0.467791,0.450946 -1.606642,1.02889 -1.457246,0.739522 -1.71001,0.915828 -2.591876,1.807871 -0.767971,0.776835 -1.079052,1.023965 -1.657281,1.316585 -0.629029,0.318327 -1.362841,0.455367 -1.922447,0.359016 l 0,0 z"
       style="fill:#ffd133;fill-opacity:1;stroke:#ffd133;stroke-width:0.1;stroke-miterlimit:4;stroke-opacity:1;stroke-dasharray:none" />
    <path
       transform="translate(44.004555,862.64396)"
       inkscape:connector-curvature="0"
       id="path10049"
       d="m 14.680268,13.186037 c -0.410307,-0.05851 -0.671752,-0.208968 -1.255726,-0.722668 -0.134439,-0.118262 -0.413478,-0.329304 -0.620086,-0.468983 -0.807161,-0.54569 -1.09315,-1.01872 -0.891508,-1.474566 0.06947,-0.15704 0.19175,-0.272719 0.675983,-0.6394706 0.325147,-0.2462617 0.730388,-0.5689131 0.900535,-0.7170032 0.576922,-0.5021312 1.21066,-0.7140862 1.834637,-0.6135976 0.430218,0.069285 0.76931,0.1983803 1.325247,0.5045347 0.279528,0.153936 0.71705,0.3531042 0.972271,0.4425957 0.710651,0.2491843 1.075575,0.4374086 1.255444,0.647545 0.548129,0.640367 -0.06512,1.560012 -1.364579,2.046374 -0.169406,0.06341 -0.497548,0.231361 -0.729204,0.373236 -0.231657,0.141874 -0.521481,0.308411 -0.644053,0.370082 -0.434847,0.218788 -1.003145,0.316917 -1.458961,0.251921 z m 0.945899,-1.064182 c 0.41163,-0.109501 1.062043,-0.418106 1.796581,-0.852432 0.315988,-0.186841 0.668989,-0.373534 0.784446,-0.414872 0.192229,-0.06883 0.209923,-0.08732 0.209923,-0.219466 0,-0.120199 -0.01661,-0.144301 -0.09944,-0.144272 -0.136449,4.9e-5 -0.542425,0.197709 -1.175449,0.572302 -1.194462,0.706823 -1.959551,0.949988 -2.644662,0.840541 -0.585307,-0.0935 -1.105961,-0.383086 -1.769602,-0.984236 -0.439155,-0.397803 -0.526777,-0.433973 -0.550892,-0.227408 -0.01549,0.132719 0.0099,0.170822 0.268949,0.403554 1.187505,1.066866 2.018951,1.335188 3.180143,1.026289 z"
       style="fill:#ffd133;fill-opacity:1;stroke:#ffd133;stroke-width:0.1;stroke-miterlimit:4;stroke-opacity:1;stroke-dasharray:none" />
    <path
       transform="translate(44.004555,862.64396)"
       inkscape:connector-curvature="0"
       id="path11322"
       d="m 14.59874,32.167198 c -0.702378,-0.132714 -1.433447,-0.41137 -2.041771,-0.778246 -0.212985,-0.12845 -0.336033,-0.240806 -0.438363,-0.400274 -0.07824,-0.121934 -0.289618,-0.413592 -0.469717,-0.648129 l -0.327453,-0.426431 0.24792,-0.03173 c 0.851055,-0.10892 1.140355,-0.79885 0.712635,-1.699508 C 12.069764,27.73599 11.930874,27.545925 11.436905,27.026414 10.933713,26.497204 10.494996,26.14358 9.5652288,25.517769 8.526258,24.818454 8.1239461,24.403372 7.7920799,23.688336 c -0.5262942,-1.133948 -0.407785,-2.56292 0.3613306,-4.356887 0.3245213,-0.756948 1.3185121,-2.555443 1.3187207,-2.386051 4.87e-5,0.03771 -0.2261941,0.519524 -0.5027567,1.0707 -0.7744006,1.543344 -1.0456559,2.459194 -1.0469708,3.534929 -0.00109,0.892367 0.1849574,1.563453 0.61259,2.20965 0.1433838,0.216668 0.1666457,0.174238 0.2002197,-0.3652 0.033647,-0.540612 0.1288168,-1.125393 0.2912899,-1.789864 0.2475917,-1.012582 0.4157285,-1.445803 1.3686917,-3.526559 1.182536,-2.582021 1.797101,-4.424505 1.893534,-5.676877 0.01357,-0.176225 0.03815,-0.320408 0.05462,-0.320408 0.06377,0 0.662675,0.438976 1.018988,0.746878 0.406829,0.351554 0.645451,0.490805 1.017322,0.593674 0.380882,0.105362 0.61725,0.123745 0.962146,0.07483 0.493752,-0.07003 0.819587,-0.198195 1.443017,-0.567616 0.315146,-0.186743 0.748162,-0.411965 0.962258,-0.500494 0.518673,-0.21447 0.835297,-0.409874 1.114958,-0.68809 l 0.231529,-0.230333 0.05339,0.186138 c 0.582827,2.032048 1.398954,4.121017 2.400736,6.144953 0.640768,1.294568 0.899294,1.872149 1.138896,2.544444 0.177297,0.497474 0.402546,1.308007 0.487683,1.754876 l 0.05149,0.27025 0.293734,0.03283 c 0.522422,0.0584 0.497858,0.06408 0.567799,-0.131393 0.195889,-0.547475 0.244956,-1.452643 0.118763,-2.190872 -0.195171,-1.141746 -0.787683,-2.320788 -1.670051,-3.32324 -0.358109,-0.406846 -0.43169,-0.518393 -0.341955,-0.518393 0.06946,0 0.731621,0.722824 1.032365,1.126952 1.179554,1.58504 1.744452,3.500057 1.475501,5.001983 l -0.05684,0.3174 0.445861,0.227467 c 1.322998,0.674961 1.819928,1.2534 1.686732,1.963399 -0.02387,0.12723 -0.0494,0.15744 -0.133032,0.15744 -0.09693,0 -0.104596,-0.01947 -0.120832,-0.306805 -0.01449,-0.256456 -0.03972,-0.338048 -0.153757,-0.497185 -0.449615,-0.627448 -1.947208,-1.314615 -2.869306,-1.316573 -0.644528,-0.0014 -1.000579,0.275234 -1.152183,0.895088 -0.07301,0.298496 -0.07382,0.299561 -0.333156,0.437787 -0.334765,0.178428 -0.725597,0.597949 -0.908861,0.975575 -0.264536,0.545092 -0.456612,1.505145 -0.519447,2.596346 -0.06321,1.09779 -0.111364,1.398949 -0.377238,2.359467 l -0.145435,0.525408 -0.335307,0.217786 c -0.75619,0.491155 -1.846322,0.950796 -2.721793,1.147613 -0.52535,0.118105 -1.913233,0.151431 -2.408582,0.05783 l 0,0 z"
       style="fill:#ffffff;fill-opacity:1;stroke:#ffd133;stroke-width:0.00441942;stroke-miterlimit:4;stroke-opacity:1;stroke-dasharray:none" />
    <path
       transform="translate(44.004555,862.64396)"
       inkscape:connector-curvature="0"
       id="path11324"
       d="m 12.369239,9.4071147 c -0.339267,-0.4448012 -0.492198,-1.031202 -0.45503,-1.7447631 0.03446,-0.6614653 0.282844,-1.1903346 0.683778,-1.4559025 0.633506,-0.4196169 1.393458,0.1122709 1.667214,1.1668769 0.07565,0.2914438 0.0933,0.9519382 0.02544,0.9519382 -0.03392,0 -0.452115,0.1825738 -0.580776,0.2535493 -0.0149,0.00822 -0.03689,-0.1200453 -0.04888,-0.2850312 -0.04037,-0.5558463 -0.314231,-0.9849841 -0.628572,-0.9849841 -0.552538,0 -0.740778,1.1536179 -0.293122,1.7963728 l 0.127652,0.1832855 -0.190021,0.1364627 -0.190021,0.1364626 -0.117665,-0.1542671 0,0 z"
       style="fill:#ffffff;fill-opacity:1;stroke:#ffd133;stroke-width:0.00441942;stroke-miterlimit:4;stroke-opacity:1;stroke-dasharray:none" />
    <path
       transform="translate(44.004555,862.64396)"
       inkscape:connector-curvature="0"
       id="path11326"
       d="M 18.126673,9.3576409 17.743422,9.2047661 17.860816,8.9528403 c 0.243497,-0.5225425 0.16756,-1.3349154 -0.158522,-1.6958488 -0.52083,-0.5764968 -1.229001,-0.064707 -1.282969,0.9271918 -0.01726,0.3173038 -0.02971,0.3630461 -0.09164,0.3369094 -0.03941,-0.016634 -0.200932,-0.074921 -0.358926,-0.129527 l -0.287262,-0.099284 -0.01278,-0.3558455 c -0.02514,-0.699789 0.233828,-1.3621422 0.702053,-1.795636 0.634585,-0.5875136 1.406423,-0.5606729 2.042028,0.071012 0.28019,0.2784615 0.513469,0.7184241 0.600378,1.1323072 0.07048,0.3356341 0.06063,0.939493 -0.0206,1.262862 -0.07104,0.2828269 -0.362626,0.8747792 -0.440031,0.8933241 -0.02344,0.00562 -0.215082,-0.058583 -0.42587,-0.1426643 l 0,0 z"
       style="fill:#ffffff;fill-opacity:1;stroke:#ffd133;stroke-width:0.00441942;stroke-miterlimit:4;stroke-opacity:1;stroke-dasharray:none" />
  </g>
</svg>
