<?xml version="1.0" encoding="UTF-8" standalone="no"?>
<svg
   xmlns:dc="http://purl.org/dc/elements/1.1/"
   xmlns:cc="http://creativecommons.org/ns#"
   xmlns:rdf="http://www.w3.org/1999/02/22-rdf-syntax-ns#"
   xmlns:svg="http://www.w3.org/2000/svg"
   xmlns="http://www.w3.org/2000/svg"
   xmlns:sodipodi="http://sodipodi.sourceforge.net/DTD/sodipodi-0.dtd"
   xmlns:inkscape="http://www.inkscape.org/namespaces/inkscape"
   height="128"
   width="128"
   id="svg2"
   version="1.1"
   inkscape:version="0.48.4 r9939"
   sodipodi:docname="10.svg">
  <metadata
     id="metadata10">
    <rdf:RDF>
      <cc:Work
         rdf:about="">
        <dc:format>image/svg+xml</dc:format>
        <dc:type
           rdf:resource="http://purl.org/dc/dcmitype/StillImage" />
      </cc:Work>
    </rdf:RDF>
  </metadata>
  <defs
     id="defs8" />
  <sodipodi:namedview
     pagecolor="#ffffff"
     bordercolor="#666666"
     borderopacity="1"
     objecttolerance="10"
     gridtolerance="10"
     guidetolerance="10"
     inkscape:pageopacity="0"
     inkscape:pageshadow="2"
     inkscape:window-width="958"
     inkscape:window-height="1078"
     id="namedview6"
     showgrid="false"
     inkscape:zoom="1.84375"
     inkscape:cx="64"
     inkscape:cy="64"
     inkscape:window-x="0"
     inkscape:window-y="0"
     inkscape:window-maximized="0"
     inkscape:current-layer="svg2" />
  <g
     style="font-size:40px;fill:#ffffff;font-family:'Inconsolata, serif'"
     id="text4">
    <path
       d="M 10.04,38.92 C 6.080004,38.92 2,43.800008 2,51.76 c 0,8.079992 4.120004,12.72 8.08,12.72 3.599996,0 7.88,-3.920009 7.88,-12.52 0,-8.479992 -4.080004,-13.04 -7.92,-13.04 M 13.92,44.64 5.16,56 C 4.8000004,54.600001 4.6,53.039998 4.6,51.28 c 0,-6.399994 2.9200025,-9.92 5.4,-9.92 1.359999,0 2.840001,1.080002 3.92,3.28 m 0.92,2.64 c 0.36,1.399999 0.52,3.080002 0.52,5.04 0,6.959993 -3.000002,9.6 -5.2,9.6 -1.4799985,0 -3.0000011,-1.200002 -4.08,-3.4 l 8.76,-11.24"
       style="font-size:40px;fill:#ffffff;font-family:'Inconsolata, serif'"
       id="path2988" />
    <path
       d="m 23.08,39.88 c 5.279995,2.839997 8.64,8.280006 8.64,14.24 0,5.999994 -3.440005,11.600003 -8.84,14.44 L 23.64,71 c 6.639993,-3.159997 10.92,-9.800007 10.92,-17 0,-7.119993 -4.200007,-13.600003 -10.72,-16.6 l -0.76,2.48"
       style="font-size:40px;fill:#ffffff;font-family:'Inconsolata, serif'"
       id="path2990" />
  </g>
</svg>
