<?xml version="1.0" encoding="UTF-8" standalone="no"?>
<svg
   xmlns:dc="http://purl.org/dc/elements/1.1/"
   xmlns:cc="http://creativecommons.org/ns#"
   xmlns:rdf="http://www.w3.org/1999/02/22-rdf-syntax-ns#"
   xmlns:svg="http://www.w3.org/2000/svg"
   xmlns="http://www.w3.org/2000/svg"
   xmlns:sodipodi="http://sodipodi.sourceforge.net/DTD/sodipodi-0.dtd"
   xmlns:inkscape="http://www.inkscape.org/namespaces/inkscape"
   height="128"
   width="128"
   id="svg2"
   version="1.1"
   inkscape:version="0.48.4 r9939"
   sodipodi:docname="13.svg">
  <metadata
     id="metadata10">
    <rdf:RDF>
      <cc:Work
         rdf:about="">
        <dc:format>image/svg+xml</dc:format>
        <dc:type
           rdf:resource="http://purl.org/dc/dcmitype/StillImage" />
      </cc:Work>
    </rdf:RDF>
  </metadata>
  <defs
     id="defs8" />
  <sodipodi:namedview
     pagecolor="#ffffff"
     bordercolor="#666666"
     borderopacity="1"
     objecttolerance="10"
     gridtolerance="10"
     guidetolerance="10"
     inkscape:pageopacity="0"
     inkscape:pageshadow="2"
     inkscape:window-width="958"
     inkscape:window-height="1078"
     id="namedview6"
     showgrid="false"
     inkscape:zoom="1.84375"
     inkscape:cx="64"
     inkscape:cy="64"
     inkscape:window-x="0"
     inkscape:window-y="0"
     inkscape:window-maximized="0"
     inkscape:current-layer="svg2" />
  <g
     style="font-size:40px;fill:#ffffff;font-family:'Inconsolata, serif'"
     id="text4">
    <path
       d="m 12.76,39.84 c 0,-1.799998 -1.040001,-2.48 -1.8,-2.48 -0.799999,0 -1.72,0.640002 -1.72,2.2 0,0.879999 0.24,1.680001 0.24,2.52 0,0.799999 -0.1600002,1.560001 -0.4,2.24 L 8.24,47 l 2.2,0.56 0.96,-2.68 c 0.999999,-2.719997 1.36,-4.000001 1.36,-5.04"
       style="font-size:40px;fill:#ffffff;font-family:'Inconsolata, serif'"
       id="path2988" />
    <path
       d="m 35.84,39.84 c 0,-1.799998 -1.000001,-2.48 -1.8,-2.48 -0.759999,0 -1.72,0.640002 -1.72,2.2 0,0.879999 0.28,1.680001 0.28,2.52 0,0.799999 -0.2,1.560001 -0.4,2.24 l -0.88,2.68 2.24,0.56 0.96,-2.68 c 0.999999,-2.719997 1.32,-4.000001 1.32,-5.04 m -6.88,0 c 0,-1.799998 -1.040001,-2.48 -1.8,-2.48 -0.799999,0 -1.72,0.640002 -1.72,2.2 0,0.879999 0.24,1.680001 0.24,2.52 0,0.799999 -0.16,1.560001 -0.4,2.24 l -0.84,2.68 2.2,0.56 0.96,-2.68 c 0.999999,-2.719997 1.36,-4.000001 1.36,-5.04"
       style="font-size:40px;fill:#ffffff;font-family:'Inconsolata, serif'"
       id="path2990" />
  </g>
</svg>
