<?xml version="1.0" encoding="UTF-8" standalone="no"?>
<svg
   xmlns:dc="http://purl.org/dc/elements/1.1/"
   xmlns:cc="http://creativecommons.org/ns#"
   xmlns:rdf="http://www.w3.org/1999/02/22-rdf-syntax-ns#"
   xmlns:svg="http://www.w3.org/2000/svg"
   xmlns="http://www.w3.org/2000/svg"
   xmlns:sodipodi="http://sodipodi.sourceforge.net/DTD/sodipodi-0.dtd"
   xmlns:inkscape="http://www.inkscape.org/namespaces/inkscape"
   height="128"
   width="128"
   id="svg2"
   version="1.1"
   inkscape:version="0.48.4 r9939"
   sodipodi:docname="19.svg">
  <metadata
     id="metadata10">
    <rdf:RDF>
      <cc:Work
         rdf:about="">
        <dc:format>image/svg+xml</dc:format>
        <dc:type
           rdf:resource="http://purl.org/dc/dcmitype/StillImage" />
      </cc:Work>
    </rdf:RDF>
  </metadata>
  <defs
     id="defs8" />
  <sodipodi:namedview
     pagecolor="#ffffff"
     bordercolor="#666666"
     borderopacity="1"
     objecttolerance="10"
     gridtolerance="10"
     guidetolerance="10"
     inkscape:pageopacity="0"
     inkscape:pageshadow="2"
     inkscape:window-width="958"
     inkscape:window-height="1078"
     id="namedview6"
     showgrid="false"
     inkscape:zoom="1.84375"
     inkscape:cx="64"
     inkscape:cy="64"
     inkscape:window-x="0"
     inkscape:window-y="0"
     inkscape:window-maximized="0"
     inkscape:current-layer="svg2" />
  <g
     style="font-size:40px;fill:#ffffff;font-family:'Inconsolata, serif'"
     id="text4">
    <path
       d="m 11.08,38.84 c -3.3199967,0 -9.64,2.080011 -9.64,13 0,9.439991 5.2800043,12.56 9.6,12.56 2.319998,0 5.000002,-0.840002 7.32,-2.6 l 0,-9.72 -7.08,0 0,2.4 4.52,0 0,5.96 c -1.399999,0.999999 -3.000001,1.52 -4.48,1.52 -1.6399984,0 -3.4000014,-0.640002 -4.76,-2.2 C 4.4800021,57.400002 4.2,53.879997 4.2,51.28 c 0,-2.319998 0.280001,-4.560002 1.24,-6.4 1.2799987,-2.439998 3.5200021,-3.56 5.6,-3.56 2.239998,0 4.000001,1.240002 4.76,2.92 0.12,0.28 0.24,0.6 0.56,0.8 l 1.96,-2 c -1.439999,-2.599997 -4.160003,-4.2 -7.24,-4.2"
       style="font-size:40px;fill:#ffffff;font-family:'Inconsolata, serif'"
       id="path2988" />
  </g>
</svg>
