<?xml version="1.0" encoding="UTF-8" standalone="no"?>
<svg
   xmlns:dc="http://purl.org/dc/elements/1.1/"
   xmlns:cc="http://creativecommons.org/ns#"
   xmlns:rdf="http://www.w3.org/1999/02/22-rdf-syntax-ns#"
   xmlns:svg="http://www.w3.org/2000/svg"
   xmlns="http://www.w3.org/2000/svg"
   xmlns:sodipodi="http://sodipodi.sourceforge.net/DTD/sodipodi-0.dtd"
   xmlns:inkscape="http://www.inkscape.org/namespaces/inkscape"
   height="128"
   width="128"
   id="svg2"
   version="1.1"
   inkscape:version="0.48.4 r9939"
   sodipodi:docname="23.svg">
  <metadata
     id="metadata10">
    <rdf:RDF>
      <cc:Work
         rdf:about="">
        <dc:format>image/svg+xml</dc:format>
        <dc:type
           rdf:resource="http://purl.org/dc/dcmitype/StillImage" />
      </cc:Work>
    </rdf:RDF>
  </metadata>
  <defs
     id="defs8" />
  <sodipodi:namedview
     pagecolor="#ffffff"
     bordercolor="#666666"
     borderopacity="1"
     objecttolerance="10"
     gridtolerance="10"
     guidetolerance="10"
     inkscape:pageopacity="0"
     inkscape:pageshadow="2"
     inkscape:window-width="958"
     inkscape:window-height="1078"
     id="namedview6"
     showgrid="false"
     inkscape:zoom="1.84375"
     inkscape:cx="64"
     inkscape:cy="64"
     inkscape:window-x="0"
     inkscape:window-y="0"
     inkscape:window-maximized="0"
     inkscape:current-layer="svg2" />
  <g
     style="font-size:40px;fill:#ffffff;font-family:'Inconsolata, serif'"
     id="text4">
    <path
       d="M 16.4,45.32 C 16.4,41.920003 13.519996,39 9.56,39 c -2.2399978,0 -4.4400016,0.960002 -6,2.68 l 1.56,1.72 c 1.1599988,-1.239999 2.7600016,-1.92 4.32,-1.92 2.559997,0 4.32,1.800002 4.32,3.92 0,1.479999 -0.920002,3.160001 -2.68,3.92 -0.44,0.16 -1.5600024,0.6 -3.92,0.6 l 0,2.24 c 0.3999996,-0.04 0.8400004,-0.08 1.28,-0.08 3.359997,0 5.84,1.760003 5.84,4.76 0,2.719997 -2.080003,5.08 -5,5.08 C 6.9600023,61.92 5.5599998,60.4 5.36,60.2 5.0400003,59.84 5.1999996,59.44 4.84,59.08 L 2.76,61.6 c 1.6399984,1.879998 4.0400025,2.84 6.52,2.84 4.799995,0 7.68,-3.400004 7.68,-7.28 0,-2.959997 -1.680003,-5.480001 -4.28,-6.44 2.239998,-0.839999 3.72,-2.960002 3.72,-5.4"
       style="font-size:40px;fill:#ffffff;font-family:'Inconsolata, serif'"
       id="path2988" />
    <path
       d="m 26.92,39.08 -0.8,6.76 -4.44,0.04 -0.16,1.92 4.36,-0.04 -0.8,6.8 -3.92,0.08 -0.16,1.84 3.88,-0.08 -0.88,7.16 2.36,-0.08 0.88,-7.12 4.4,-0.08 -0.84,7.32 2.4,-0.12 0.88,-7.24 4,-0.04 0.2,-1.88 -3.96,0.08 0.8,-6.76 3.68,0 0.2,-1.96 -3.64,0.04 0.8,-6.56 -2.48,0.12 -0.76,6.48 -4.4,0.04 0.8,-6.84 -2.4,0.12 m 1.36,8.64 4.4,-0.04 -0.8,6.76 -4.44,0.08 0.84,-6.8"
       style="font-size:40px;fill:#ffffff;font-family:'Inconsolata, serif'"
       id="path2990" />
  </g>
</svg>
