<?xml version="1.0" encoding="UTF-8" standalone="no"?>
<svg
   xmlns:dc="http://purl.org/dc/elements/1.1/"
   xmlns:cc="http://creativecommons.org/ns#"
   xmlns:rdf="http://www.w3.org/1999/02/22-rdf-syntax-ns#"
   xmlns:svg="http://www.w3.org/2000/svg"
   xmlns="http://www.w3.org/2000/svg"
   xmlns:sodipodi="http://sodipodi.sourceforge.net/DTD/sodipodi-0.dtd"
   xmlns:inkscape="http://www.inkscape.org/namespaces/inkscape"
   height="128"
   width="128"
   id="svg2"
   version="1.1"
   inkscape:version="0.48.4 r9939"
   sodipodi:docname="24.svg">
  <metadata
     id="metadata10">
    <rdf:RDF>
      <cc:Work
         rdf:about="">
        <dc:format>image/svg+xml</dc:format>
        <dc:type
           rdf:resource="http://purl.org/dc/dcmitype/StillImage" />
      </cc:Work>
    </rdf:RDF>
  </metadata>
  <defs
     id="defs8" />
  <sodipodi:namedview
     pagecolor="#ffffff"
     bordercolor="#666666"
     borderopacity="1"
     objecttolerance="10"
     gridtolerance="10"
     guidetolerance="10"
     inkscape:pageopacity="0"
     inkscape:pageshadow="2"
     inkscape:window-width="958"
     inkscape:window-height="1078"
     id="namedview6"
     showgrid="false"
     inkscape:zoom="1.84375"
     inkscape:cx="64"
     inkscape:cy="64"
     inkscape:window-x="0"
     inkscape:window-y="0"
     inkscape:window-maximized="0"
     inkscape:current-layer="svg2" />
  <g
     style="font-size:40px;fill:#ffffff;font-family:'Inconsolata, serif'"
     id="text4">
    <path
       d="m 10.32,38.8 c -3.8399962,0 -6.76,2.760003 -6.76,6.12 0,2.439998 1.5600022,4.680001 3.8,5.84 -2.959997,1.399999 -4.96,4.120003 -4.96,7 0,3.719996 3.2800043,6.68 7.56,6.68 4.359996,0 7.68,-3.040004 7.68,-6.84 0,-2.959997 -2.000003,-5.600001 -4.8,-6.92 2.399998,-1.239999 3.96,-3.600002 3.96,-6 0,-3.279997 -2.840004,-5.88 -6.48,-5.88 M 9.48,51.92 c 3.199997,0.999999 5.32,3.200002 5.32,5.64 0,2.399998 -2.040003,4.36 -4.72,4.36 -2.7199973,0 -4.8,-2.040002 -4.8,-4.52 0,-2.359998 1.8400024,-4.520001 4.2,-5.48 m 0.6,-10.8 c 2.239998,0 4,1.680002 4,3.76 0,1.919998 -1.480002,3.760001 -3.44,4.8 0,0 -4.4,-1.680003 -4.4,-5 0,-1.959998 1.6800022,-3.56 3.84,-3.56"
       style="font-size:40px;fill:#ffffff;font-family:'Inconsolata, serif'"
       id="path2988" />
    <path
       d="m 28.52,43.28 0.6,7.08 -6.44,-3.04 -1.04,2.6 6.92,2.08 -5.24,6 2.2,1.76 4.48,-6.64 4.32,6.6 2.16,-1.72 -5.04,-6.04 6.88,-2.04 -1.08,-2.48 -6.36,2.92 0.64,-6 c 0.04,-0.519999 0.16,-0.6 0.24,-1.08 l -3.24,0"
       style="font-size:40px;fill:#ffffff;font-family:'Inconsolata, serif'"
       id="path2990" />
  </g>
</svg>
