<?xml version="1.0" encoding="UTF-8" standalone="no"?>
<svg
   xmlns:dc="http://purl.org/dc/elements/1.1/"
   xmlns:cc="http://creativecommons.org/ns#"
   xmlns:rdf="http://www.w3.org/1999/02/22-rdf-syntax-ns#"
   xmlns:svg="http://www.w3.org/2000/svg"
   xmlns="http://www.w3.org/2000/svg"
   xmlns:sodipodi="http://sodipodi.sourceforge.net/DTD/sodipodi-0.dtd"
   xmlns:inkscape="http://www.inkscape.org/namespaces/inkscape"
   height="128"
   width="128"
   id="svg2"
   version="1.1"
   inkscape:version="0.48.4 r9939"
   sodipodi:docname="3.svg">
  <metadata
     id="metadata10">
    <rdf:RDF>
      <cc:Work
         rdf:about="">
        <dc:format>image/svg+xml</dc:format>
        <dc:type
           rdf:resource="http://purl.org/dc/dcmitype/StillImage" />
      </cc:Work>
    </rdf:RDF>
  </metadata>
  <defs
     id="defs8" />
  <sodipodi:namedview
     pagecolor="#ffffff"
     bordercolor="#666666"
     borderopacity="1"
     objecttolerance="10"
     gridtolerance="10"
     guidetolerance="10"
     inkscape:pageopacity="0"
     inkscape:pageshadow="2"
     inkscape:window-width="958"
     inkscape:window-height="1078"
     id="namedview6"
     showgrid="false"
     inkscape:zoom="1.84375"
     inkscape:cx="64"
     inkscape:cy="64"
     inkscape:window-x="0"
     inkscape:window-y="0"
     inkscape:window-maximized="0"
     inkscape:current-layer="svg2" />
  <g
     style="font-size:40px;fill:#ffffff;font-family:'Inconsolata, serif'"
     id="text4">
    <path
       d="m 11.96,39.08 -1.92,0 -6.52,3.4 0.64,1.56 5,-1.48 0,21.48 2.8,0 0,-24.96"
       style="font-size:40px;fill:#ffffff;font-family:'Inconsolata, serif'"
       id="path2988" />
    <path
       d="m 31.92,62.12 c 0,-1.319999 -1.040001,-2.4 -2.36,-2.4 -1.319999,0 -2.36,1.080001 -2.36,2.4 0,1.279999 1.040001,2.36 2.36,2.36 1.319999,0 2.36,-1.080001 2.36,-2.36 m -2.28,-24.8 c -0.719999,0 -1.4,0.400001 -1.76,1.28 -0.2,0.44 -0.28,0.960001 -0.28,1.72 0,1.279999 0.24,2.240003 0.4,4.88 l 0.56,11.04 2,0 0.76,-11.04 c 0.08,-1.519998 0.36,-3.040002 0.36,-4.56 0,-0.919999 -0.08,-1.4 -0.16,-1.64 -0.32,-1.199999 -1.160001,-1.68 -1.88,-1.68"
       style="font-size:40px;fill:#ffffff;font-family:'Inconsolata, serif'"
       id="path2990" />
  </g>
</svg>
