<?xml version="1.0" encoding="UTF-8" standalone="no"?>
<svg
   xmlns:dc="http://purl.org/dc/elements/1.1/"
   xmlns:cc="http://creativecommons.org/ns#"
   xmlns:rdf="http://www.w3.org/1999/02/22-rdf-syntax-ns#"
   xmlns:svg="http://www.w3.org/2000/svg"
   xmlns="http://www.w3.org/2000/svg"
   xmlns:sodipodi="http://sodipodi.sourceforge.net/DTD/sodipodi-0.dtd"
   xmlns:inkscape="http://www.inkscape.org/namespaces/inkscape"
   height="128"
   width="128"
   id="svg2"
   version="1.1"
   inkscape:version="0.48.4 r9939"
   sodipodi:docname="30.svg">
  <metadata
     id="metadata10">
    <rdf:RDF>
      <cc:Work
         rdf:about="">
        <dc:format>image/svg+xml</dc:format>
        <dc:type
           rdf:resource="http://purl.org/dc/dcmitype/StillImage" />
      </cc:Work>
    </rdf:RDF>
  </metadata>
  <defs
     id="defs8" />
  <sodipodi:namedview
     pagecolor="#ffffff"
     bordercolor="#666666"
     borderopacity="1"
     objecttolerance="10"
     gridtolerance="10"
     guidetolerance="10"
     inkscape:pageopacity="0"
     inkscape:pageshadow="2"
     inkscape:window-width="958"
     inkscape:window-height="1078"
     id="namedview6"
     showgrid="false"
     inkscape:zoom="1.84375"
     inkscape:cx="64"
     inkscape:cy="64"
     inkscape:window-x="0"
     inkscape:window-y="0"
     inkscape:window-maximized="0"
     inkscape:current-layer="svg2" />
  <g
     style="font-size:40px;fill:#ffffff;font-family:'Inconsolata, serif'"
     id="text4">
    <path
       d="M 2.52,64.52 4.88,65.72 17.44,38.64 15.08,37.44 2.52,64.52"
       style="font-size:40px;fill:#ffffff;font-family:'Inconsolata, serif'"
       id="path2988" />
    <path
       d="m 32.8,62.24 c 0,-1.239999 -1.080001,-2.28 -2.36,-2.28 -1.319999,0 -2.4,1.040001 -2.4,2.28 0,1.279999 1.080001,2.28 2.4,2.28 1.279999,0 2.36,-1.000001 2.36,-2.28 M 22.52,41.6 l 2.04,1.88 c 1.279999,-2.119998 3.400002,-3.44 5.4,-3.44 2.399998,0 4.24,1.840002 4.24,4.2 0,2.639997 -2.080001,4.280001 -3.28,5.6 -1.799998,1.919998 -1.88,3.360002 -1.88,5.12 l 0,1.68 2.6,0 0,-1.68 c 0,-1.399999 0.120002,-2.600001 1.76,-4.04 1.319999,-1.159999 3.96,-2.720004 3.96,-6.48 0,-3.719996 -2.600005,-7.04 -7.12,-7.04 -2.999997,0 -5.960002,1.520003 -7.72,4.2"
       style="font-size:40px;fill:#ffffff;font-family:'Inconsolata, serif'"
       id="path2990" />
  </g>
</svg>
