<?xml version="1.0" encoding="UTF-8" standalone="no"?>
<svg
   xmlns:dc="http://purl.org/dc/elements/1.1/"
   xmlns:cc="http://creativecommons.org/ns#"
   xmlns:rdf="http://www.w3.org/1999/02/22-rdf-syntax-ns#"
   xmlns:svg="http://www.w3.org/2000/svg"
   xmlns="http://www.w3.org/2000/svg"
   xmlns:sodipodi="http://sodipodi.sourceforge.net/DTD/sodipodi-0.dtd"
   xmlns:inkscape="http://www.inkscape.org/namespaces/inkscape"
   height="128"
   width="128"
   id="svg2"
   version="1.1"
   inkscape:version="0.48.4 r9939"
   sodipodi:docname="39.svg">
  <metadata
     id="metadata10">
    <rdf:RDF>
      <cc:Work
         rdf:about="">
        <dc:format>image/svg+xml</dc:format>
        <dc:type
           rdf:resource="http://purl.org/dc/dcmitype/StillImage" />
      </cc:Work>
    </rdf:RDF>
  </metadata>
  <defs
     id="defs8" />
  <sodipodi:namedview
     pagecolor="#ffffff"
     bordercolor="#666666"
     borderopacity="1"
     objecttolerance="10"
     gridtolerance="10"
     guidetolerance="10"
     inkscape:pageopacity="0"
     inkscape:pageshadow="2"
     inkscape:window-width="958"
     inkscape:window-height="1078"
     id="namedview6"
     showgrid="false"
     inkscape:zoom="1.84375"
     inkscape:cx="64"
     inkscape:cy="64"
     inkscape:window-x="0"
     inkscape:window-y="0"
     inkscape:window-maximized="0"
     inkscape:current-layer="svg2" />
  <g
     style="font-size:40px;fill:#ffffff;font-family:'Inconsolata, serif'"
     id="text4">
    <path
       d="m 12.2,63.24 c 0,-2.039998 -1.360001,-3.32 -2.76,-3.32 -1.3199987,0 -2.32,1.080001 -2.32,2.28 0,1.079999 0.7600004,1.52 1.12,1.76 0.3599996,0.24 0.92,0.600001 0.92,1.44 0,0.639999 -0.3600002,1.32 -0.56,1.64 -0.3999996,0.639999 -1.080001,1.640001 -2.04,2.52 l 1.4,1.2 c 2.799997,-2.839997 4.24,-5.440002 4.24,-7.52 M 11.88,49.4 c 0,-1.239999 -1.040001,-2.28 -2.36,-2.28 -1.3199987,0 -2.36,1.040001 -2.36,2.28 0,1.279999 1.0400013,2.28 2.36,2.28 1.319999,0 2.36,-1.000001 2.36,-2.28"
       style="font-size:40px;fill:#ffffff;font-family:'Inconsolata, serif'"
       id="path2988" />
    <path
       d="m 31.88,49.4 c 0,-1.239999 -1.040001,-2.28 -2.36,-2.28 -1.319999,0 -2.36,1.040001 -2.36,2.28 0,1.279999 1.040001,2.28 2.36,2.28 1.319999,0 2.36,-1.000001 2.36,-2.28 m 0,12.76 c 0,-1.239999 -1.040001,-2.28 -2.36,-2.28 -1.319999,0 -2.36,1.040001 -2.36,2.28 0,1.279999 1.040001,2.32 2.36,2.32 1.319999,0 2.36,-1.040001 2.36,-2.32"
       style="font-size:40px;fill:#ffffff;font-family:'Inconsolata, serif'"
       id="path2990" />
  </g>
</svg>
