<?xml version="1.0" encoding="UTF-8" standalone="no"?>
<svg
   xmlns:dc="http://purl.org/dc/elements/1.1/"
   xmlns:cc="http://creativecommons.org/ns#"
   xmlns:rdf="http://www.w3.org/1999/02/22-rdf-syntax-ns#"
   xmlns:svg="http://www.w3.org/2000/svg"
   xmlns="http://www.w3.org/2000/svg"
   xmlns:sodipodi="http://sodipodi.sourceforge.net/DTD/sodipodi-0.dtd"
   xmlns:inkscape="http://www.inkscape.org/namespaces/inkscape"
   height="128"
   width="128"
   id="svg2"
   version="1.1"
   inkscape:version="0.48.4 r9939"
   sodipodi:docname="4.svg">
  <metadata
     id="metadata10">
    <rdf:RDF>
      <cc:Work
         rdf:about="">
        <dc:format>image/svg+xml</dc:format>
        <dc:type
           rdf:resource="http://purl.org/dc/dcmitype/StillImage" />
      </cc:Work>
    </rdf:RDF>
  </metadata>
  <defs
     id="defs8" />
  <sodipodi:namedview
     pagecolor="#ffffff"
     bordercolor="#666666"
     borderopacity="1"
     objecttolerance="10"
     gridtolerance="10"
     guidetolerance="10"
     inkscape:pageopacity="0"
     inkscape:pageshadow="2"
     inkscape:window-width="958"
     inkscape:window-height="1078"
     id="namedview6"
     showgrid="false"
     inkscape:zoom="1.84375"
     inkscape:cx="64"
     inkscape:cy="64"
     inkscape:window-x="0"
     inkscape:window-y="0"
     inkscape:window-maximized="0"
     inkscape:current-layer="svg2" />
  <g
     style="font-size:40px;fill:#ffffff;font-family:'Inconsolata, serif'"
     id="text4">
    <path
       d="M 3.08,42.96 5.12,44.6 C 5.3599998,44.24 5.2400002,44 5.48,43.68 6.0799994,42.760001 7.5600022,41.4 9.72,41.4 c 2.679997,0 4.8,2.040003 4.8,4.72 0,3.039997 -2.560002,5.240002 -4.36,6.88 -2.8399972,2.559997 -5.1600021,5.120004 -7.24,9.24 l 0,1.76 14.64,0 0,-2.76 c -0.28,-0.12 -0.48,0.08 -0.56,0.16 -0.16,0.16 -0.24,0.16 -0.4,0.16 l -10.48,0 c 2.0799979,-3.599996 5.000002,-6.080002 6.8,-7.76 1.799998,-1.719998 4.36,-4.280004 4.36,-7.88 0,-3.879996 -3.160004,-7 -7.2,-7 -2.8399972,0 -5.5200015,1.520003 -7,4.04"
       style="font-size:40px;fill:#ffffff;font-family:'Inconsolata, serif'"
       id="path2988" />
    <path
       d="m 37.36,62.8 -1.04,-1.92 c -1.279999,0.839999 -2.760002,1.32 -4.32,1.32 -3.879996,0 -8.48,-3.040008 -8.48,-10.84 0,-7.199993 3.720003,-10.52 7.2,-10.52 2.999997,0 5.36,2.440003 5.36,5.4 l -0.6,0 c -1.519998,0 -3.120002,10e-7 -4.72,0.64 -2.479998,0.999999 -3.8,3.120002 -3.8,5.28 0,2.879997 2.360003,5.2 5.2,5.2 1.559998,0 3.000001,-0.680001 4,-1.88 l 0,1.52 2.44,0 0,-8.08 c 0,-1.919998 -0.04,-3.840002 -0.92,-5.76 -1.279999,-2.839997 -3.960003,-4.44 -6.84,-4.44 -4.359996,0 -9.6,3.680009 -9.6,12.76 0,9.279991 5.560005,13 10.52,13 1.999998,0 3.960002,-0.600001 5.6,-1.68 m -1.2,-14.56 0,0.76 c 0,1.599998 0.04,3.120001 -0.56,4.32 -0.639999,1.199999 -1.800001,1.84 -2.96,1.84 -1.759998,0 -3.16,-1.400002 -3.16,-3.12 0,-1.039999 0.480001,-2.120001 1.56,-2.84 1.359999,-0.959999 3.040001,-0.96 4.48,-0.96 l 0.64,0"
       style="font-size:40px;fill:#ffffff;font-family:'Inconsolata, serif'"
       id="path2990" />
  </g>
</svg>
