<?xml version="1.0" encoding="UTF-8" standalone="no"?>
<svg
   xmlns:dc="http://purl.org/dc/elements/1.1/"
   xmlns:cc="http://creativecommons.org/ns#"
   xmlns:rdf="http://www.w3.org/1999/02/22-rdf-syntax-ns#"
   xmlns:svg="http://www.w3.org/2000/svg"
   xmlns="http://www.w3.org/2000/svg"
   xmlns:sodipodi="http://sodipodi.sourceforge.net/DTD/sodipodi-0.dtd"
   xmlns:inkscape="http://www.inkscape.org/namespaces/inkscape"
   height="128"
   width="128"
   id="svg2"
   version="1.1"
   inkscape:version="0.48.4 r9939"
   sodipodi:docname="40.svg">
  <metadata
     id="metadata10">
    <rdf:RDF>
      <cc:Work
         rdf:about="">
        <dc:format>image/svg+xml</dc:format>
        <dc:type
           rdf:resource="http://purl.org/dc/dcmitype/StillImage" />
      </cc:Work>
    </rdf:RDF>
  </metadata>
  <defs
     id="defs8" />
  <sodipodi:namedview
     pagecolor="#ffffff"
     bordercolor="#666666"
     borderopacity="1"
     objecttolerance="10"
     gridtolerance="10"
     guidetolerance="10"
     inkscape:pageopacity="0"
     inkscape:pageshadow="2"
     inkscape:window-width="958"
     inkscape:window-height="1078"
     id="namedview6"
     showgrid="false"
     inkscape:zoom="1.84375"
     inkscape:cx="64"
     inkscape:cy="64"
     inkscape:window-x="0"
     inkscape:window-y="0"
     inkscape:window-maximized="0"
     inkscape:current-layer="svg2" />
  <g
     style="font-size:40px;fill:#ffffff;font-family:'Inconsolata, serif'"
     id="text4">
    <path
       d="m 10,41.36 c 1.759998,0 3.920001,1.040003 5.12,4 0.879999,2.119998 1,4.560002 1,6.64 0,8.279992 -3.840002,9.8 -5.96,9.8 -2.9199971,0 -6.28,-2.800008 -6.28,-10.68 0,-7.319993 3.4000027,-9.76 6.12,-9.76 m 8.84,10.32 c 0,-2.359998 -0.160001,-5.440003 -1.52,-8.12 -1.599998,-3.239997 -4.480003,-4.72 -7.2,-4.72 -3.7199963,0 -8.96,2.88001 -8.96,12.68 0,8.879991 4.2400036,12.240001 7.84,12.8 0,2.279998 0.6000018,4.000001 2.4,4.88 1.559998,0.759999 3.320003,0.6 6.2,0.6 l 0.04,-2.72 c -1.239999,0.08 -2.320001,0.24 -3.24,0.24 -2.479998,0 -2.88,-1.640001 -2.92,-3.04 2.279998,-0.4 4.480001,-1.920003 5.88,-4.68 1.319999,-2.639997 1.48,-5.760002 1.48,-7.92"
       style="font-size:40px;fill:#ffffff;font-family:'Inconsolata, serif'"
       id="path2988" />
  </g>
</svg>
