<?xml version="1.0" encoding="UTF-8" standalone="no"?>
<svg
   xmlns:dc="http://purl.org/dc/elements/1.1/"
   xmlns:cc="http://creativecommons.org/ns#"
   xmlns:rdf="http://www.w3.org/1999/02/22-rdf-syntax-ns#"
   xmlns:svg="http://www.w3.org/2000/svg"
   xmlns="http://www.w3.org/2000/svg"
   xmlns:sodipodi="http://sodipodi.sourceforge.net/DTD/sodipodi-0.dtd"
   xmlns:inkscape="http://www.inkscape.org/namespaces/inkscape"
   height="128"
   width="128"
   id="svg2"
   version="1.1"
   inkscape:version="0.48.4 r9939"
   sodipodi:docname="44.svg">
  <metadata
     id="metadata10">
    <rdf:RDF>
      <cc:Work
         rdf:about="">
        <dc:format>image/svg+xml</dc:format>
        <dc:type
           rdf:resource="http://purl.org/dc/dcmitype/StillImage" />
      </cc:Work>
    </rdf:RDF>
  </metadata>
  <defs
     id="defs8" />
  <sodipodi:namedview
     pagecolor="#ffffff"
     bordercolor="#666666"
     borderopacity="1"
     objecttolerance="10"
     gridtolerance="10"
     guidetolerance="10"
     inkscape:pageopacity="0"
     inkscape:pageshadow="2"
     inkscape:window-width="958"
     inkscape:window-height="1078"
     id="namedview6"
     showgrid="false"
     inkscape:zoom="1.84375"
     inkscape:cx="64"
     inkscape:cy="64"
     inkscape:window-x="0"
     inkscape:window-y="0"
     inkscape:window-maximized="0"
     inkscape:current-layer="svg2" />
  <g
     style="font-size:40px;fill:#ffffff;font-family:'Inconsolata, serif'"
     id="text4">
    <path
       d="m 1.92,39.08 0,24.92 7.04,0 c 1.679998,0 3.400002,-10e-7 5.12,-0.72 2.679997,-1.159999 4.16,-3.600003 4.16,-6.16 0,-2.919997 -1.880003,-5.520001 -4.64,-6.44 2.199998,-0.919999 3.68,-3.120002 3.68,-5.48 0,-2.239998 -1.280002,-4.400001 -3.64,-5.4 C 12.080002,39.120001 10.519998,39.08 9,39.08 l -7.08,0 m 2.76,2.4 3.92,0 c 1.0799989,0 2.200001,0 3.32,0.44 1.639998,0.679999 2.52,2.080001 2.52,3.52 0,1.439999 -0.840002,2.800001 -2.4,3.48 -1.159999,0.48 -2.3600011,0.48 -3.48,0.48 l -3.88,0 0,-7.92 m 0,10.28 4.08,0 c 1.2399988,0 2.480001,0.04 3.72,0.64 1.839998,0.839999 2.84,2.640002 2.84,4.44 0,1.799998 -0.960002,3.440001 -2.68,4.24 -1.079999,0.48 -2.120001,0.48 -3.2,0.48 l -4.76,0 0,-9.8"
       style="font-size:40px;fill:#ffffff;font-family:'Inconsolata, serif'"
       id="path2988" />
  </g>
</svg>
