<?xml version="1.0" encoding="UTF-8" standalone="no"?>
<svg
   xmlns:dc="http://purl.org/dc/elements/1.1/"
   xmlns:cc="http://creativecommons.org/ns#"
   xmlns:rdf="http://www.w3.org/1999/02/22-rdf-syntax-ns#"
   xmlns:svg="http://www.w3.org/2000/svg"
   xmlns="http://www.w3.org/2000/svg"
   xmlns:sodipodi="http://sodipodi.sourceforge.net/DTD/sodipodi-0.dtd"
   xmlns:inkscape="http://www.inkscape.org/namespaces/inkscape"
   height="128"
   width="128"
   id="svg2"
   version="1.1"
   inkscape:version="0.48.4 r9939"
   sodipodi:docname="5.svg">
  <metadata
     id="metadata10">
    <rdf:RDF>
      <cc:Work
         rdf:about="">
        <dc:format>image/svg+xml</dc:format>
        <dc:type
           rdf:resource="http://purl.org/dc/dcmitype/StillImage" />
      </cc:Work>
    </rdf:RDF>
  </metadata>
  <defs
     id="defs8" />
  <sodipodi:namedview
     pagecolor="#ffffff"
     bordercolor="#666666"
     borderopacity="1"
     objecttolerance="10"
     gridtolerance="10"
     guidetolerance="10"
     inkscape:pageopacity="0"
     inkscape:pageshadow="2"
     inkscape:window-width="958"
     inkscape:window-height="1078"
     id="namedview6"
     showgrid="false"
     inkscape:zoom="1.84375"
     inkscape:cx="64"
     inkscape:cy="64"
     inkscape:window-x="0"
     inkscape:window-y="0"
     inkscape:window-maximized="0"
     inkscape:current-layer="svg2" />
  <g
     style="font-size:40px;fill:#ffffff;font-family:'Inconsolata, serif'"
     id="text4">
    <path
       d="m 12.52,39.08 -10.6,15.96 0,2.08 10.04,0 0,6.88 2.88,0 0,-6.84 3.24,0 0,-2.48 -3.24,0 0,-15.6 -2.32,0 M 12,43.52 12,54.68 4.68,54.68 12,43.52"
       style="font-size:40px;fill:#ffffff;font-family:'Inconsolata, serif'"
       id="path2988" />
    <path
       d="m 29.36,38 0,2.4 c -3.679996,0.48 -6.2,2.920003 -6.2,5.8 0,1.439999 0.640003,3.680002 4,5.28 0.719999,0.36 1.480001,0.64 2.2,0.88 l 0,8.76 c -2.079998,-0.2 -3.840001,-1.240001 -4.96,-2.44 -0.16,-0.16 -0.16,-0.24 -0.12,-0.44 0,-0.04 0,-0.28 -0.2,-0.36 l -1.72,2.36 c 1.799998,1.959998 4.240003,3.04 7,3.2 l 0,2.44 2.36,0 0,-2.52 c 4.519995,-0.559999 6.64,-3.720003 6.64,-6.6 0,-3.639996 -3.160001,-5 -4,-5.36 -0.839999,-0.36 -1.720001,-0.68 -2.64,-1 l 0,-7.68 c 1.719998,0.24 2.960001,1.000001 3.8,2 0.12,0.16 0.16,0.2 0.16,0.24 0.08,0.12 0.04,0.24 0.04,0.36 0,0.16 0.12,0.24 0.2,0.28 l 1.72,-2.2 c -1.439999,-1.759998 -3.560002,-2.8 -5.92,-3.04 l 0,-1.52 c 0,-0.4 0.28,-0.4 0.28,-0.72 0,-0.04 -0.04,-0.08 -0.04,-0.12 l -2.6,0 m 2.36,15.08 c 0.799999,0.24 1.520001,0.52 2.04,0.8 1.679998,0.919999 2,2.240001 2,3.08 0,1.799998 -1.480003,3.6 -4.04,4.08 l 0,-7.96 M 29.36,49.6 c -0.519999,-0.2 -0.96,-0.44 -1.4,-0.68 -1.759998,-0.999999 -2.16,-2.200001 -2.16,-3.08 0,-1.399999 1.040003,-2.88 3.56,-3.16 l 0,6.92"
       style="font-size:40px;fill:#ffffff;font-family:'Inconsolata, serif'"
       id="path2990" />
  </g>
</svg>
