<?xml version="1.0" encoding="UTF-8" standalone="no"?>
<svg
   xmlns:dc="http://purl.org/dc/elements/1.1/"
   xmlns:cc="http://creativecommons.org/ns#"
   xmlns:rdf="http://www.w3.org/1999/02/22-rdf-syntax-ns#"
   xmlns:svg="http://www.w3.org/2000/svg"
   xmlns="http://www.w3.org/2000/svg"
   xmlns:sodipodi="http://sodipodi.sourceforge.net/DTD/sodipodi-0.dtd"
   xmlns:inkscape="http://www.inkscape.org/namespaces/inkscape"
   height="128"
   width="128"
   id="svg2"
   version="1.1"
   inkscape:version="0.48.4 r9939"
   sodipodi:docname="50.svg">
  <metadata
     id="metadata10">
    <rdf:RDF>
      <cc:Work
         rdf:about="">
        <dc:format>image/svg+xml</dc:format>
        <dc:type
           rdf:resource="http://purl.org/dc/dcmitype/StillImage" />
      </cc:Work>
    </rdf:RDF>
  </metadata>
  <defs
     id="defs8" />
  <sodipodi:namedview
     pagecolor="#ffffff"
     bordercolor="#666666"
     borderopacity="1"
     objecttolerance="10"
     gridtolerance="10"
     guidetolerance="10"
     inkscape:pageopacity="0"
     inkscape:pageshadow="2"
     inkscape:window-width="958"
     inkscape:window-height="1078"
     id="namedview6"
     showgrid="false"
     inkscape:zoom="1.84375"
     inkscape:cx="64"
     inkscape:cy="64"
     inkscape:window-x="0"
     inkscape:window-y="0"
     inkscape:window-maximized="0"
     inkscape:current-layer="svg2" />
  <g
     style="font-size:40px;fill:#ffffff;font-family:'Inconsolata, serif'"
     id="text4">
    <path
       d="m 8.76,45.6 c 1.1599988,1.359999 2.360001,1.239999 2.96,0.72 0.599999,-0.519999 0.919999,-1.560001 -0.12,-2.8 C 11.040001,42.880001 10.359999,42.439999 9.8,41.76 9.2800005,41.160001 8.9199998,40.479999 8.68,39.8 l -1.08,-2.6 -2.04,1 0.96,2.64 c 0.999999,2.759997 1.5600007,3.920001 2.24,4.76"
       style="font-size:40px;fill:#ffffff;font-family:'Inconsolata, serif'"
       id="path2988" />
    <path
       d="m 23.64,50.36 c 0.999999,-1.679998 2.200001,-2.48 3.32,-2.48 2.439998,0 3.240003,3.2 6.52,3.2 2.479998,0 4.480001,-2.120002 5.52,-3.68 l -1.84,-1.52 c -1.159999,1.559998 -2.080001,2.56 -3.4,2.56 -2.279998,0 -3.320003,-3 -6.64,-3 -2.239998,0 -4.320001,1.600002 -5.48,3.6 l 2,1.32"
       style="font-size:40px;fill:#ffffff;font-family:'Inconsolata, serif'"
       id="path2990" />
  </g>
</svg>
