<?xml version="1.0" encoding="UTF-8" standalone="no"?>
<svg
   xmlns:dc="http://purl.org/dc/elements/1.1/"
   xmlns:cc="http://creativecommons.org/ns#"
   xmlns:rdf="http://www.w3.org/1999/02/22-rdf-syntax-ns#"
   xmlns:svg="http://www.w3.org/2000/svg"
   xmlns="http://www.w3.org/2000/svg"
   xmlns:sodipodi="http://sodipodi.sourceforge.net/DTD/sodipodi-0.dtd"
   xmlns:inkscape="http://www.inkscape.org/namespaces/inkscape"
   height="128"
   width="128"
   id="svg2"
   version="1.1"
   inkscape:version="0.48.4 r9939"
   sodipodi:docname="55.svg">
  <metadata
     id="metadata10">
    <rdf:RDF>
      <cc:Work
         rdf:about="">
        <dc:format>image/svg+xml</dc:format>
        <dc:type
           rdf:resource="http://purl.org/dc/dcmitype/StillImage" />
      </cc:Work>
    </rdf:RDF>
  </metadata>
  <defs
     id="defs8" />
  <sodipodi:namedview
     pagecolor="#ffffff"
     bordercolor="#666666"
     borderopacity="1"
     objecttolerance="10"
     gridtolerance="10"
     guidetolerance="10"
     inkscape:pageopacity="0"
     inkscape:pageshadow="2"
     inkscape:window-width="958"
     inkscape:window-height="1078"
     id="namedview6"
     showgrid="false"
     inkscape:zoom="1.84375"
     inkscape:cx="64"
     inkscape:cy="64"
     inkscape:window-x="0"
     inkscape:window-y="0"
     inkscape:window-maximized="0"
     inkscape:current-layer="svg2" />
  <g
     style="font-size:40px;fill:#ffffff;font-family:'Inconsolata, serif'"
     id="text4">
    <path
       d="m 5.24,37.24 0,30.32 11.44,0 0,-2.28 -8.88,0 0,-25.68 8.84,0 0,-2.36 -11.4,0"
       style="font-size:40px;fill:#ffffff;font-family:'Inconsolata, serif'"
       id="path2988" />
    <path
       d="m 22.08,52.68 0,2.24 0.84,0 c 0.679999,0 1.720001,-0.04 2.52,0.8 0.799999,0.759999 1.04,1.920002 1.04,3.64 0,1.239999 -0.12,2.440002 -0.12,4 0,1.439999 0.120002,4.200002 2.2,5.8 1.759998,1.319999 3.800002,1.2 6.28,1.2 l 1.44,0 0,-2.24 -1.48,0 c -1.639998,0 -2.920001,0.08 -4,-0.68 -1.439999,-0.959999 -1.64,-2.720001 -1.64,-4.08 0,-1.079999 0.12,-2.120001 0.12,-3.36 0,-4.199996 -1.840002,-5.720001 -3.36,-6.24 1.239999,-0.519999 2.240001,-1.480001 2.84,-2.68 0.519999,-1.079999 0.64,-2.280001 0.64,-3.2 0,-0.999999 -0.12,-1.880001 -0.12,-2.84 0,-0.799999 0.08,-2.760001 1.6,-3.72 1.079999,-0.679999 2.280002,-0.48 4.04,-0.48 l 1.4,0 0,-2.28 -1.24,0 c -2.119998,0 -4.680002,-0.159998 -6.6,1.6 -1.759998,1.599998 -2,3.840002 -2,5.36 0,0.959999 0.12,1.880001 0.12,2.84 0,0.999999 -0.120001,2.400001 -1.04,3.4 -0.879999,0.919999 -1.960001,0.92 -2.68,0.92 l -0.8,0"
       style="font-size:40px;fill:#ffffff;font-family:'Inconsolata, serif'"
       id="path2990" />
  </g>
</svg>
