<?xml version="1.0" encoding="UTF-8" standalone="no"?>
<svg
   xmlns:dc="http://purl.org/dc/elements/1.1/"
   xmlns:cc="http://creativecommons.org/ns#"
   xmlns:rdf="http://www.w3.org/1999/02/22-rdf-syntax-ns#"
   xmlns:svg="http://www.w3.org/2000/svg"
   xmlns="http://www.w3.org/2000/svg"
   xmlns:sodipodi="http://sodipodi.sourceforge.net/DTD/sodipodi-0.dtd"
   xmlns:inkscape="http://www.inkscape.org/namespaces/inkscape"
   height="128"
   width="128"
   id="svg2"
   version="1.1"
   inkscape:version="0.48.4 r9939"
   sodipodi:docname="58.svg">
  <metadata
     id="metadata10">
    <rdf:RDF>
      <cc:Work
         rdf:about="">
        <dc:format>image/svg+xml</dc:format>
        <dc:type
           rdf:resource="http://purl.org/dc/dcmitype/StillImage" />
      </cc:Work>
    </rdf:RDF>
  </metadata>
  <defs
     id="defs8" />
  <sodipodi:namedview
     pagecolor="#ffffff"
     bordercolor="#666666"
     borderopacity="1"
     objecttolerance="10"
     gridtolerance="10"
     guidetolerance="10"
     inkscape:pageopacity="0"
     inkscape:pageshadow="2"
     inkscape:window-width="958"
     inkscape:window-height="1078"
     id="namedview6"
     showgrid="false"
     inkscape:zoom="1.84375"
     inkscape:cx="64"
     inkscape:cy="64"
     inkscape:window-x="0"
     inkscape:window-y="0"
     inkscape:window-maximized="0"
     inkscape:current-layer="svg2" />
  <g
     style="font-size:40px;fill:#ffffff;font-family:'Inconsolata, serif'"
     id="text4">
    <path
       d="m 18.84,51.6 c 0,-2.319998 -0.160001,-5.400003 -1.52,-8.08 -1.639998,-3.199997 -4.480003,-4.68 -7.2,-4.68 -3.7199963,0 -8.96,2.88001 -8.96,12.68 0,9.79999 5.1600038,12.88 9,12.88 2.679997,0 5.560002,-1.520003 7.2,-4.84 1.319999,-2.679997 1.48,-5.760002 1.48,-7.96 M 10,41.44 c 1.759998,0 3.920001,1.040003 5.08,3.96 0.839999,2.079998 0.96,4.480002 0.96,6.56 0,1.639998 -0.08,4.200002 -1.12,6.32 -1.159999,2.439998 -3.080002,3.4 -4.76,3.4 -2.7999972,0 -6.24,-2.600008 -6.24,-10.52 0,-7.439993 3.4800026,-9.72 6.08,-9.72"
       style="font-size:40px;fill:#ffffff;font-family:'Inconsolata, serif'"
       id="path2988" />
  </g>
</svg>
