<?xml version="1.0" encoding="UTF-8" standalone="no"?>
<svg
   xmlns:dc="http://purl.org/dc/elements/1.1/"
   xmlns:cc="http://creativecommons.org/ns#"
   xmlns:rdf="http://www.w3.org/1999/02/22-rdf-syntax-ns#"
   xmlns:svg="http://www.w3.org/2000/svg"
   xmlns="http://www.w3.org/2000/svg"
   xmlns:sodipodi="http://sodipodi.sourceforge.net/DTD/sodipodi-0.dtd"
   xmlns:inkscape="http://www.inkscape.org/namespaces/inkscape"
   height="128"
   width="128"
   id="svg2"
   version="1.1"
   inkscape:version="0.48.4 r9939"
   sodipodi:docname="6.svg">
  <metadata
     id="metadata10">
    <rdf:RDF>
      <cc:Work
         rdf:about="">
        <dc:format>image/svg+xml</dc:format>
        <dc:type
           rdf:resource="http://purl.org/dc/dcmitype/StillImage" />
      </cc:Work>
    </rdf:RDF>
  </metadata>
  <defs
     id="defs8" />
  <sodipodi:namedview
     pagecolor="#ffffff"
     bordercolor="#666666"
     borderopacity="1"
     objecttolerance="10"
     gridtolerance="10"
     guidetolerance="10"
     inkscape:pageopacity="0"
     inkscape:pageshadow="2"
     inkscape:window-width="958"
     inkscape:window-height="1078"
     id="namedview6"
     showgrid="false"
     inkscape:zoom="1.84375"
     inkscape:cx="64"
     inkscape:cy="64"
     inkscape:window-x="0"
     inkscape:window-y="0"
     inkscape:window-maximized="0"
     inkscape:current-layer="svg2" />
  <g
     style="font-size:40px;fill:#ffffff;font-family:'Inconsolata, serif'"
     id="text4">
    <path
       d="m 4.24,39.08 -0.88,12.68 1.8,0.72 c 1.1999988,-1.519998 2.9600017,-2.36 4.68,-2.36 2.599997,0 5.08,2.000004 5.08,5.96 C 14.92,59.919996 12.559997,62 9.88,62 7.2000027,62 5.4399999,59.96 5.32,59.72 5.1600002,59.4 5.3599996,59 5,58.76 l -2.48,1.88 c 1.6799983,2.439998 4.440003,3.84 7.4,3.84 4.319996,0 7.88,-2.920005 7.88,-8.32 0,-5.359995 -3.360004,-8.32 -7.56,-8.32 -1.3599986,0 -2.7600013,0.320001 -4.04,0.96 l 0.36,-7.2 10.32,0 0,-2.52 -12.64,0"
       style="font-size:40px;fill:#ffffff;font-family:'Inconsolata, serif'"
       id="path2988" />
    <path
       d="M 35.6,39.08 21.8,64 l 2.56,0 13.96,-24.92 -2.72,0 M 25.56,38.64 c -2.359998,0 -4.44,2.160003 -4.44,5.24 0,2.999997 2.040002,5.24 4.48,5.24 2.439998,0 4.48,-2.240003 4.48,-5.2 0,-3.039997 -2.080002,-5.28 -4.52,-5.28 m -0.04,2.12 c 0.639999,0 2.04,0.400003 2.04,3.28 0,2.319998 -1.200001,2.92 -2,2.92 -0.719999,0 -2.04,-0.520003 -2.04,-3.2 0,-2.399998 1.200001,-3 2,-3 m 13.76,18.48 c 0,-2.999997 -2.040002,-5.2 -4.48,-5.2 -2.399998,0 -4.48,2.200003 -4.48,5.2 0,2.999997 2.040002,5.2 4.48,5.2 2.439998,0 4.48,-2.200003 4.48,-5.2 M 34.8,56.12 c 0.839999,0 2.08,0.640003 2.08,3.2 0,2.399998 -1.200001,3.08 -2.04,3.08 -0.959999,0 -2.12,-0.800002 -2.12,-3.16 0,-2.439998 1.240001,-3.12 2.08,-3.12"
       style="font-size:40px;fill:#ffffff;font-family:'Inconsolata, serif'"
       id="path2990" />
  </g>
</svg>
