<?xml version="1.0" encoding="UTF-8" standalone="no"?>
<svg
   xmlns:dc="http://purl.org/dc/elements/1.1/"
   xmlns:cc="http://creativecommons.org/ns#"
   xmlns:rdf="http://www.w3.org/1999/02/22-rdf-syntax-ns#"
   xmlns:svg="http://www.w3.org/2000/svg"
   xmlns="http://www.w3.org/2000/svg"
   xmlns:sodipodi="http://sodipodi.sourceforge.net/DTD/sodipodi-0.dtd"
   xmlns:inkscape="http://www.inkscape.org/namespaces/inkscape"
   height="128"
   width="128"
   id="svg2"
   version="1.1"
   inkscape:version="0.48.4 r9939"
   sodipodi:docname="60.svg">
  <metadata
     id="metadata10">
    <rdf:RDF>
      <cc:Work
         rdf:about="">
        <dc:format>image/svg+xml</dc:format>
        <dc:type
           rdf:resource="http://purl.org/dc/dcmitype/StillImage" />
      </cc:Work>
    </rdf:RDF>
  </metadata>
  <defs
     id="defs8" />
  <sodipodi:namedview
     pagecolor="#ffffff"
     bordercolor="#666666"
     borderopacity="1"
     objecttolerance="10"
     gridtolerance="10"
     guidetolerance="10"
     inkscape:pageopacity="0"
     inkscape:pageshadow="2"
     inkscape:window-width="958"
     inkscape:window-height="1078"
     id="namedview6"
     showgrid="false"
     inkscape:zoom="1.84375"
     inkscape:cx="64"
     inkscape:cy="64"
     inkscape:window-x="0"
     inkscape:window-y="0"
     inkscape:window-maximized="0"
     inkscape:current-layer="svg2" />
  <g
     style="font-size:40px;fill:#ffffff;font-family:'Inconsolata, serif'"
     id="text4">
    <path
       d="m 2,39.08 0,16.36 0,0 c 0,1.759998 0.040001,3.440002 0.96,5.16 1.3599986,2.559997 4.1600029,3.88 7.08,3.88 2.879997,0 5.680001,-1.280003 7.08,-3.92 0.959999,-1.719998 1,-3.440002 1,-5.28 l 0,-16.2 -2.64,0 0,16.28 c 0,1.279999 -0.04,2.520001 -0.64,3.8 -0.919999,1.919998 -2.800002,2.92 -4.76,2.92 -1.959998,0 -3.8400009,-1.040002 -4.72,-2.96 -0.5999994,-1.199999 -0.6,-2.440001 -0.6,-3.68 l 0,-15.08 c 0,-0.16 2e-7,-0.32 0.16,-0.52 0.08,-0.12 0.24,-0.32 0.24,-0.56 0,-0.04 0,-0.12 -0.04,-0.2 l -3.12,0"
       style="font-size:40px;fill:#ffffff;font-family:'Inconsolata, serif'"
       id="path2988" />
  </g>
</svg>
