<?xml version="1.0" encoding="UTF-8" standalone="no"?>
<svg
   xmlns:dc="http://purl.org/dc/elements/1.1/"
   xmlns:cc="http://creativecommons.org/ns#"
   xmlns:rdf="http://www.w3.org/1999/02/22-rdf-syntax-ns#"
   xmlns:svg="http://www.w3.org/2000/svg"
   xmlns="http://www.w3.org/2000/svg"
   xmlns:sodipodi="http://sodipodi.sourceforge.net/DTD/sodipodi-0.dtd"
   xmlns:inkscape="http://www.inkscape.org/namespaces/inkscape"
   height="128"
   width="128"
   id="svg2"
   version="1.1"
   inkscape:version="0.48.4 r9939"
   sodipodi:docname="64.svg">
  <metadata
     id="metadata10">
    <rdf:RDF>
      <cc:Work
         rdf:about="">
        <dc:format>image/svg+xml</dc:format>
        <dc:type
           rdf:resource="http://purl.org/dc/dcmitype/StillImage" />
      </cc:Work>
    </rdf:RDF>
  </metadata>
  <defs
     id="defs8" />
  <sodipodi:namedview
     pagecolor="#ffffff"
     bordercolor="#666666"
     borderopacity="1"
     objecttolerance="10"
     gridtolerance="10"
     guidetolerance="10"
     inkscape:pageopacity="0"
     inkscape:pageshadow="2"
     inkscape:window-width="958"
     inkscape:window-height="1078"
     id="namedview6"
     showgrid="false"
     inkscape:zoom="1.84375"
     inkscape:cx="64"
     inkscape:cy="64"
     inkscape:window-x="0"
     inkscape:window-y="0"
     inkscape:window-maximized="0"
     inkscape:current-layer="svg2" />
  <g
     style="font-size:40px;fill:#ffffff;font-family:'Inconsolata, serif'"
     id="text4">
    <path
       d="m 17.36,42.08 c -1.679998,-2.039998 -4.160003,-3.12 -6.88,-3.12 -4.5199955,0 -7.6,2.960003 -7.6,6.4 0,1.439999 0.5600021,3.320002 2.64,4.84 2.3199977,1.719998 5.920002,2.560001 7.8,3.76 1.639998,0.999999 2.08,2.320001 2.08,3.44 0,2.159998 -1.840004,4.52 -5.44,4.52 C 7.2400027,61.92 5.1199989,60.559999 4,59.16 3.8800001,59 3.88,58.92 3.88,58.76 c 0,-0.08 -2e-7,-0.32 -0.16,-0.4 l -1.68,2.88 c 1.959998,2.119998 4.7600031,3.2 7.84,3.2 6.079994,0 8.32,-4.080003 8.32,-7.2 0,-1.319999 -0.400002,-3.040001 -1.96,-4.52 -2.159998,-2.039998 -5.680002,-2.760001 -7.96,-4.08 -2.0799979,-1.239999 -2.52,-2.720001 -2.52,-3.72 0,-1.919998 1.6400028,-3.64 4.48,-3.64 2.319998,0 4.120001,1.040001 5.08,2.44 0.12,0.16 0.08,0.24 0.08,0.4 0,0.24 0.12,0.32 0.2,0.32 l 1.76,-2.36"
       style="font-size:40px;fill:#ffffff;font-family:'Inconsolata, serif'"
       id="path2988" />
  </g>
</svg>
