<?xml version="1.0" encoding="UTF-8" standalone="no"?>
<svg
   xmlns:dc="http://purl.org/dc/elements/1.1/"
   xmlns:cc="http://creativecommons.org/ns#"
   xmlns:rdf="http://www.w3.org/1999/02/22-rdf-syntax-ns#"
   xmlns:svg="http://www.w3.org/2000/svg"
   xmlns="http://www.w3.org/2000/svg"
   xmlns:sodipodi="http://sodipodi.sourceforge.net/DTD/sodipodi-0.dtd"
   xmlns:inkscape="http://www.inkscape.org/namespaces/inkscape"
   height="128"
   width="128"
   id="svg2"
   version="1.1"
   inkscape:version="0.48.4 r9939"
   sodipodi:docname="68.svg">
  <metadata
     id="metadata10">
    <rdf:RDF>
      <cc:Work
         rdf:about="">
        <dc:format>image/svg+xml</dc:format>
        <dc:type
           rdf:resource="http://purl.org/dc/dcmitype/StillImage" />
      </cc:Work>
    </rdf:RDF>
  </metadata>
  <defs
     id="defs8" />
  <sodipodi:namedview
     pagecolor="#ffffff"
     bordercolor="#666666"
     borderopacity="1"
     objecttolerance="10"
     gridtolerance="10"
     guidetolerance="10"
     inkscape:pageopacity="0"
     inkscape:pageshadow="2"
     inkscape:window-width="958"
     inkscape:window-height="1078"
     id="namedview6"
     showgrid="false"
     inkscape:zoom="1.84375"
     inkscape:cx="64"
     inkscape:cy="64"
     inkscape:window-x="0"
     inkscape:window-y="0"
     inkscape:window-maximized="0"
     inkscape:current-layer="svg2" />
  <g
     style="font-size:40px;fill:#ffffff;font-family:'Inconsolata, serif'"
     id="text4">
    <path
       d="m 13.007813,62.90625 -1.953125,0 0,-3.964844 C 10.390615,58.863286 9.7525944,58.694016 9.140625,58.433594 8.2552001,58.055996 7.4413988,57.502611 6.6992187,56.773437 6.4518165,56.526049 6.2304625,56.278654 6.0351562,56.03125 l -3.4570312,1.992187 -0.9765625,-1.699218 3.4375,-1.992188 c -0.364588,-0.898427 -0.5468795,-1.861967 -0.546875,-2.890625 -4.5e-6,-1.041653 0.182287,-2.005194 0.546875,-2.890625 l 0,-0.01953 -3.4375,-1.992188 0.9765625,-1.699218 3.4570312,2.011718 c 0.2083271,-0.260399 0.4296811,-0.514305 0.6640625,-0.761718 0.7421801,-0.729148 1.5559814,-1.282533 2.4414063,-1.660157 0.6119694,-0.260396 1.24999,-0.429667 1.914063,-0.507812 l 0,-3.964844 1.953125,0 0,3.964844 c 0.677069,0.07814 1.315089,0.247416 1.914062,0.507812 0.898422,0.377624 1.718733,0.931009 2.460937,1.660157 0.234358,0.234392 0.449201,0.481788 0.644532,0.742187 l 3.457031,-1.992187 0.976562,1.699218 -3.4375,1.972657 0.01953,0.03906 c 0.364564,0.885431 0.546855,1.848972 0.546875,2.890625 -2e-5,1.028658 -0.182311,1.992198 -0.546875,2.890625 l 0,0.01953 3.417968,1.972657 -0.976562,1.699218 -3.4375,-1.992187 c -0.208351,0.260424 -0.429705,0.50782 -0.664063,0.742187 -0.742204,0.729174 -1.562515,1.282559 -2.460937,1.660157 -0.598973,0.260422 -1.236993,0.429692 -1.914062,0.507812 l 0,3.964844 m 0,-5.976563 c 0.403632,-0.0651 0.794257,-0.175774 1.171875,-0.332031 0.651026,-0.27343 1.249984,-0.683585 1.796875,-1.230469 0.117171,-0.117178 0.221337,-0.234366 0.312499,-0.351562 l -3.281249,-1.894531 0,3.808593 m 0,-10.996093 0,3.808593 3.281249,-1.894531 C 16.1979,47.730485 16.093734,47.613298 15.976563,47.496094 15.429672,46.949236 14.830714,46.53908 14.179688,46.265625 13.80207,46.109393 13.411445,45.998716 13.007813,45.933594 m -1.953125,0 c -0.403657,0.06512 -0.787771,0.175799 -1.1523442,0.332031 -0.651051,0.273455 -1.2500087,0.683611 -1.796875,1.230469 -0.1171955,0.117204 -0.2278725,0.234391 -0.3320313,0.351562 l 3.2812505,1.894531 0,-3.808593 m 0,10.996093 0,-3.808593 -3.2812505,1.894531 c 0.1041588,0.117196 0.2148358,0.234384 0.3320313,0.351562 0.5468663,0.546884 1.145824,0.957039 1.796875,1.230469 0.3645732,0.156257 0.7486872,0.266934 1.1523442,0.332031 M 6.7773437,53.335937 10.078125,51.421875 6.7773437,49.527344 c -0.2083399,0.598972 -0.3125064,1.236992 -0.3125,1.914062 -6.4e-6,0.664075 0.1041601,1.295584 0.3125,1.894531 m 10.5078123,-3.808593 -3.300781,1.894531 3.300781,1.914062 c 0.221337,-0.585926 0.332014,-1.217436 0.332031,-1.894531 -1.7e-5,-0.690091 -0.110694,-1.328111 -0.332031,-1.914062"
       style="font-size:40px;fill:#ffffff;font-family:'Inconsolata, serif'"
       id="path2988" />
  </g>
</svg>
