<?xml version="1.0" encoding="UTF-8" standalone="no"?>
<svg
   xmlns:dc="http://purl.org/dc/elements/1.1/"
   xmlns:cc="http://creativecommons.org/ns#"
   xmlns:rdf="http://www.w3.org/1999/02/22-rdf-syntax-ns#"
   xmlns:svg="http://www.w3.org/2000/svg"
   xmlns="http://www.w3.org/2000/svg"
   xmlns:sodipodi="http://sodipodi.sourceforge.net/DTD/sodipodi-0.dtd"
   xmlns:inkscape="http://www.inkscape.org/namespaces/inkscape"
   height="128"
   width="128"
   id="svg2"
   version="1.1"
   inkscape:version="0.48.4 r9939"
   sodipodi:docname="7.svg">
  <metadata
     id="metadata10">
    <rdf:RDF>
      <cc:Work
         rdf:about="">
        <dc:format>image/svg+xml</dc:format>
        <dc:type
           rdf:resource="http://purl.org/dc/dcmitype/StillImage" />
      </cc:Work>
    </rdf:RDF>
  </metadata>
  <defs
     id="defs8" />
  <sodipodi:namedview
     pagecolor="#ffffff"
     bordercolor="#666666"
     borderopacity="1"
     objecttolerance="10"
     gridtolerance="10"
     guidetolerance="10"
     inkscape:pageopacity="0"
     inkscape:pageshadow="2"
     inkscape:window-width="958"
     inkscape:window-height="1078"
     id="namedview6"
     showgrid="false"
     inkscape:zoom="1.84375"
     inkscape:cx="64"
     inkscape:cy="64"
     inkscape:window-x="0"
     inkscape:window-y="0"
     inkscape:window-maximized="0"
     inkscape:current-layer="svg2" />
  <g
     style="font-size:40px;fill:#ffffff;font-family:'Inconsolata, serif'"
     id="text4">
    <path
       d="m 11.48,38.8 c -2.999997,0 -6.2000016,1.840004 -7.76,6.2 -0.8399992,2.359998 -1.04,5.280002 -1.04,7.68 0,2.919997 0.2800016,6.040002 1.88,8.44 1.4399986,2.199998 3.6800022,3.32 5.88,3.32 3.799996,0 7.12,-3.200005 7.12,-8.36 0,-5.159995 -3.320004,-8.16 -6.84,-8.16 -2.1599978,0 -4.2000011,1.160002 -5.28,3 0.1599998,-8.519991 4.2400018,-9.64 6.04,-9.64 1.639998,0 2.76,0.88 2.92,1.04 0.24,0.28 0.24,0.64 0.6,0.92 l 1.92,-2.16 C 15.480001,39.640001 13.479998,38.8 11.48,38.8 m -1.04,11.6 c 1.999998,0 4.4,1.560004 4.4,5.84 0,3.879996 -2.160002,5.72 -4.28,5.72 -3.039997,0 -5.3199997,-3.560005 -5,-8.24 1.1199989,-2.039998 3.0400018,-3.32 4.88,-3.32"
       style="font-size:40px;fill:#ffffff;font-family:'Inconsolata, serif'"
       id="path2988" />
    <path
       d="m 23.72,49.36 2,0.96 4.36,-7 3.88,7 2.16,-1 -5.44,-10.24 -0.88,0 -6.08,10.28"
       style="font-size:40px;fill:#ffffff;font-family:'Inconsolata, serif'"
       id="path2990" />
  </g>
</svg>
