<?xml version="1.0" encoding="UTF-8" standalone="no"?>
<svg
   xmlns:dc="http://purl.org/dc/elements/1.1/"
   xmlns:cc="http://creativecommons.org/ns#"
   xmlns:rdf="http://www.w3.org/1999/02/22-rdf-syntax-ns#"
   xmlns:svg="http://www.w3.org/2000/svg"
   xmlns="http://www.w3.org/2000/svg"
   xmlns:sodipodi="http://sodipodi.sourceforge.net/DTD/sodipodi-0.dtd"
   xmlns:inkscape="http://www.inkscape.org/namespaces/inkscape"
   height="128"
   width="128"
   id="svg2"
   version="1.1"
   inkscape:version="0.48.4 r9939"
   sodipodi:docname="8.svg">
  <metadata
     id="metadata10">
    <rdf:RDF>
      <cc:Work
         rdf:about="">
        <dc:format>image/svg+xml</dc:format>
        <dc:type
           rdf:resource="http://purl.org/dc/dcmitype/StillImage" />
      </cc:Work>
    </rdf:RDF>
  </metadata>
  <defs
     id="defs8" />
  <sodipodi:namedview
     pagecolor="#ffffff"
     bordercolor="#666666"
     borderopacity="1"
     objecttolerance="10"
     gridtolerance="10"
     guidetolerance="10"
     inkscape:pageopacity="0"
     inkscape:pageshadow="2"
     inkscape:window-width="958"
     inkscape:window-height="1078"
     id="namedview6"
     showgrid="false"
     inkscape:zoom="1.84375"
     inkscape:cx="64"
     inkscape:cy="64"
     inkscape:window-x="0"
     inkscape:window-y="0"
     inkscape:window-maximized="0"
     inkscape:current-layer="svg2" />
  <g
     style="font-size:40px;fill:#ffffff;font-family:'Inconsolata, serif'"
     id="text4">
    <path
       d="m 3.12,39.08 0,2.68 10.68,0 c -1.279999,2.959997 -2.480001,5.920003 -3.64,8.92 C 8.4800017,55.079996 6.8799985,59.520004 5.4,64 l 3.16,0 c 1.1999988,-3.919996 2.520001,-7.800004 3.96,-11.64 1.439999,-3.959996 3.040002,-7.840004 4.72,-11.72 l 0,-1.56 -14.12,0"
       style="font-size:40px;fill:#ffffff;font-family:'Inconsolata, serif'"
       id="path2988" />
    <path
       d="m 29.12,38.84 c -3.039997,0 -5.48,2.280003 -5.48,5.24 0,2.199998 1.360001,4.440002 2.84,6.24 -3.079997,1.679998 -5.04,4.760003 -5.04,7.84 0,3.559996 2.640004,6.28 6.24,6.28 2.679997,0 5.160002,-1.480002 6.72,-3.44 l 2.2,3.52 2.36,-1.76 -2.8,-3.64 c 1.119999,-1.479999 2.160001,-3.040002 3.04,-4.68 l -2.6,-1.76 c -0.08,0.08 -0.16,0.2 -0.16,0.4 0,0.16 0.08,0.32 0.08,0.48 0,0.12 -0.04,0.2 -0.08,0.32 -0.28,0.919999 -0.840001,2.080001 -1.8,3.2 l -4.48,-6.24 c 2.599997,-1.439999 4.32,-4.040003 4.32,-6.68 0,-3.079997 -2.360003,-5.32 -5.36,-5.32 m -2.72,5.32 c 0,-1.759998 1.280001,-2.92 2.68,-2.92 1.479999,0 2.8,1.240002 2.8,3.12 0,1.839998 -1.200002,3.720001 -3.08,4.76 -1.959998,-2.479998 -2.4,-3.920001 -2.4,-4.96 m 1.44,8 5.12,6.92 c 0,0 -2.200003,2.76 -4.88,2.76 -2.039998,0 -3.64,-1.640002 -3.64,-3.96 0,-2.039998 1.280002,-4.320001 3.4,-5.72"
       style="font-size:40px;fill:#ffffff;font-family:'Inconsolata, serif'"
       id="path2990" />
  </g>
</svg>
