<?xml version="1.0" encoding="UTF-8" standalone="no"?>
<svg
   xmlns:dc="http://purl.org/dc/elements/1.1/"
   xmlns:cc="http://creativecommons.org/ns#"
   xmlns:rdf="http://www.w3.org/1999/02/22-rdf-syntax-ns#"
   xmlns:svg="http://www.w3.org/2000/svg"
   xmlns="http://www.w3.org/2000/svg"
   xmlns:sodipodi="http://sodipodi.sourceforge.net/DTD/sodipodi-0.dtd"
   xmlns:inkscape="http://www.inkscape.org/namespaces/inkscape"
   height="128"
   width="128"
   id="svg2"
   version="1.1"
   inkscape:version="0.48.4 r9939"
   sodipodi:docname="9.svg">
  <metadata
     id="metadata10">
    <rdf:RDF>
      <cc:Work
         rdf:about="">
        <dc:format>image/svg+xml</dc:format>
        <dc:type
           rdf:resource="http://purl.org/dc/dcmitype/StillImage" />
      </cc:Work>
    </rdf:RDF>
  </metadata>
  <defs
     id="defs8" />
  <sodipodi:namedview
     pagecolor="#ffffff"
     bordercolor="#666666"
     borderopacity="1"
     objecttolerance="10"
     gridtolerance="10"
     guidetolerance="10"
     inkscape:pageopacity="0"
     inkscape:pageshadow="2"
     inkscape:window-width="958"
     inkscape:window-height="1078"
     id="namedview6"
     showgrid="false"
     inkscape:zoom="1.84375"
     inkscape:cx="64"
     inkscape:cy="64"
     inkscape:window-x="0"
     inkscape:window-y="0"
     inkscape:window-maximized="0"
     inkscape:current-layer="svg2" />
  <g
     style="font-size:40px;fill:#ffffff;font-family:'Inconsolata, serif'"
     id="text4">
    <path
       d="m 8.68,64.44 c 3.039997,0 6.200002,-1.840004 7.72,-5.8 0.44,-1.159999 1.08,-3.320004 1.08,-7.4 0,-3.119997 -0.280001,-5.280002 -0.88,-6.96 -1.279999,-3.839996 -4.160003,-5.44 -6.76,-5.44 -3.8799961,0 -7.12,3.440005 -7.12,8.28 0,4.759995 3.2000036,7.84 6.84,7.84 2.039998,0 3.960001,-1.000002 5.12,-2.68 -0.12,3.879996 -0.76,5.560001 -1,6.16 -1.079999,2.519997 -3.160002,3.44 -4.92,3.44 -1.7999982,0 -3,-0.88 -3,-0.92 C 5.4000004,60.72 5.5199996,60.28 5.08,60 l -1.92,2.16 c 1.4799985,1.439999 3.4400021,2.28 5.52,2.28 M 9.8,52.52 c -2.1999978,0 -4.36,-1.800004 -4.36,-5.52 0,-3.639996 2.0800023,-5.68 4.36,-5.68 2.799997,0 5.2,3.120005 4.76,8.16 -1.119999,1.879998 -2.960002,3.04 -4.76,3.04"
       style="font-size:40px;fill:#ffffff;font-family:'Inconsolata, serif'"
       id="path2988" />
    <path
       d="m 35.64,37.36 c -6.159994,2.719997 -10.12,9.000007 -10.12,16.32 0,7.279993 3.840006,13.920003 10.16,17.24 L 37,68.8 c -5.479995,-3.159997 -8.68,-9.040006 -8.68,-15.24 0,-5.719994 2.760005,-10.840003 7.44,-13.56 0.08,-0.08 0.2,-0.16 0.36,-0.16 0.12,0 0.24,0.08 0.4,0.08 0.08,0 0.2,-0.04 0.36,-0.08 l -1.24,-2.48"
       style="font-size:40px;fill:#ffffff;font-family:'Inconsolata, serif'"
       id="path2990" />
  </g>
</svg>
